<?xml version="1.0" encoding="UTF-8" standalone="no"?>
<!-- Created with Inkscape (http://www.inkscape.org/) -->

<svg
   xmlns:dc="http://purl.org/dc/elements/1.1/"
   xmlns:cc="http://creativecommons.org/ns#"
   xmlns:rdf="http://www.w3.org/1999/02/22-rdf-syntax-ns#"
   xmlns:svg="http://www.w3.org/2000/svg"
   xmlns="http://www.w3.org/2000/svg"
   version="1.1"
   width="1300.0011"
   height="439.86346"
   id="svg3168">
  <defs
     id="defs3170" />
  <metadata
     id="metadata3173">
    <rdf:RDF>
      <cc:Work
         rdf:about="">
        <dc:format>image/svg+xml</dc:format>
        <dc:type
           rdf:resource="http://purl.org/dc/dcmitype/StillImage" />
        <dc:title></dc:title>
      </cc:Work>
    </rdf:RDF>
  </metadata>
  <g
     transform="translate(-89.972165,-163.72585)"
     id="layer1">
    <path
       d="m 773.00418,220.94142 c 0,-0.30553 0.55145,-0.41117 1.22543,-0.23494 0.67399,0.1763 1.22544,0.42616 1.22544,0.55528 0,0.12924 -0.55145,0.23495 -1.22544,0.23495 -0.67398,0 -1.22543,-0.24979 -1.22543,-0.55536 z m -46.87307,0.55536 c -0.20815,-0.33703 -0.10317,-0.61274 0.23386,-0.61274 0.33703,0 0.78313,0.27585 0.9914,0.61274 0.20815,0.33703 0.10317,0.6127 -0.23386,0.6127 -0.33703,0 -0.78313,-0.27585 -0.9914,-0.6127 z m 112.43408,1.22543 c 0,-0.33703 0.42985,-0.61273 0.95519,-0.61273 0.52542,0 0.78484,0.27585 0.57657,0.61273 -0.20815,0.33703 -0.63814,0.6127 -0.95519,0.6127 -0.31712,0 -0.57657,-0.27549 -0.57657,-0.6127 z m -82.41082,0 c -1.16929,-0.50243 -1.16227,-0.5286 0.15313,-0.56965 0.75822,-0.0253 1.3786,0.23277 1.3786,0.56965 0,0.33703 -0.0692,0.59337 -0.15313,0.56966 -0.0843,-0.0253 -0.70465,-0.28019 -1.37864,-0.56966 z m 118.72718,2.69342 c 0.20345,-0.20381 0.73209,-0.22553 1.1744,-0.0485 0.48878,0.19548 0.34354,0.34065 -0.37019,0.37019 -0.64586,0.0253 -1.0078,-0.11838 -0.80421,-0.32183 z m -16.09665,-0.0717 c -0.84247,-0.15096 -1.77189,-0.50529 -2.0654,-0.78708 -0.29359,-0.28164 0.6637,-0.24327 2.12705,0.0854 4.09149,0.91936 4.04584,1.43862 -0.0615,0.70168 z m 12.42035,1.90966 c 0.20345,-0.20344 0.73209,-0.22553 1.17439,-0.0485 0.48879,0.19549 0.34355,0.34065 -0.37022,0.37023 -0.64586,0.0253 -1.00776,-0.11838 -0.80417,-0.32182 z m 3.66356,1.80259 c -1.31105,-0.52904 -0.84018,-1.43236 0.74668,-1.43236 1.09276,0 1.41469,0.25485 1.15987,0.9191 -0.3674,0.95744 -0.6304,1.02818 -1.90655,0.51326 z m 142.77639,8.61365 c 0.2035,-0.20344 0.7321,-0.22553 1.1744,-0.0485 0.4888,0.19548 0.3436,0.34065 -0.3701,0.37018 -0.6459,0.0253 -1.0078,-0.11837 -0.8043,-0.32182 z m 16.3776,0.98297 c 1.1999,-0.7755 2.011,-0.7755 1.5318,0 -0.2082,0.33702 -0.845,0.60849 -1.4148,0.60332 -0.8929,-0.0109 -0.9091,-0.0912 -0.1173,-0.60332 z m -4.7359,0.24254 c 0.2035,-0.20345 0.7321,-0.22553 1.1744,-0.0485 0.4888,0.19549 0.3436,0.34101 -0.3702,0.37023 -0.6459,0.0253 -1.0078,-0.11838 -0.8042,-0.32183 z m -95.59423,1.8482 c 0.19802,-0.19802 2.05284,-0.43141 4.12172,-0.51854 2.1715,-0.0912 3.4222,0.0568 2.95872,0.35078 -0.9006,0.57118 -7.64365,0.73097 -7.08044,0.16761 z m 10.87302,0.97286 c -0.79207,-0.51185 -0.77589,-0.59525 0.11729,-0.60333 0.56984,-0.007 1.2065,0.26644 1.41477,0.60333 0.47926,0.77549 -0.33196,0.77549 -1.5318,0 z m 0.1658,2.08071 c 0.20345,-0.20381 0.73209,-0.22553 1.17443,-0.0485 0.48875,0.19549 0.34354,0.34065 -0.37019,0.37019 -0.6459,0.0253 -1.00783,-0.11837 -0.80424,-0.32182 z m 343.12301,129.89655 c 0.2035,-0.20345 0.7321,-0.22553 1.1744,-0.0485 0.4888,0.19549 0.3436,0.34065 -0.3702,0.37019 -0.6458,0.0253 -1.0078,-0.11837 -0.8042,-0.32182 z m -1044.54647,69.6077 c 0.20816,-0.33703 0.6544,-0.61273 0.9914,-0.61273 0.33703,0 0.44233,0.27585 0.23385,0.61273 -0.20815,0.33703 -0.6544,0.6127 -0.99139,0.6127 -0.33703,0 -0.4423,-0.27549 -0.23386,-0.6127 z m 388.30733,91.50085 c -0.42341,-0.17051 -0.6139,-0.56245 -0.42341,-0.87067 0.52068,-0.8425 1.32441,-0.67496 1.72099,0.35876 0.36092,0.94024 0.0594,1.05912 -1.29758,0.51195 z m 262.54251,3.06882 c 0.41483,-0.16798 1.24198,-0.17811 1.83817,-0.0217 0.59612,0.1553 0.25666,0.2925 -0.75424,0.30517 -1.01102,0.0109 -1.49879,-0.11476 -1.08393,-0.28273 z M 1149.38,548.93168 c 0.2035,-0.20345 0.7321,-0.22553 1.1744,-0.0485 0.4888,0.19548 0.3435,0.34065 -0.3702,0.37022 -0.6459,0.0253 -1.0078,-0.11837 -0.8042,-0.32182 z m -82.4236,0.57711 c 0.4213,-0.16978 1.1106,-0.16978 1.5318,0 0.4213,0.16978 0.077,0.30879 -0.7659,0.30879 -0.8424,0 -1.1871,-0.13901 -0.7659,-0.30879 z m -2.7445,0.64832 c 0.2039,-0.20345 0.7321,-0.22553 1.1745,-0.0485 0.4888,0.19549 0.3435,0.34065 -0.3702,0.37019 -0.6459,0.0253 -1.0078,-0.11838 -0.8043,-0.32182 z m -566.31883,1.28929 c 0,-0.50551 0.36762,-0.9191 0.81698,-0.9191 0.44932,0 0.81694,0.41359 0.81694,0.9191 0,0.50547 -0.36762,0.91907 -0.81694,0.91907 -0.44936,0 -0.81698,-0.4136 -0.81698,-0.91907 z M 780.66319,220.88412 c 0.20815,-0.33703 -0.0507,-0.6127 -0.57654,-0.6127 -0.52538,0 -0.95527,0.27585 -0.95527,0.6127 0,0.33703 0.2592,0.61273 0.57661,0.61273 0.31712,0 0.74697,-0.27549 0.9552,-0.61273 z m -287.05916,6.43357 c 0,-0.56571 -0.53009,-0.89174 -1.37863,-0.848 -1.04914,0.0539 -1.12053,0.13828 -0.29902,0.35259 0.59387,0.15494 0.92225,0.5365 0.72973,0.84801 -0.19259,0.31168 -0.0579,0.56632 0.29902,0.56632 0.35694,0 0.6489,-0.41359 0.6489,-0.91907 z m 358.5559,1.72826 c -0.44233,-0.17702 -0.97079,-0.15494 -1.17442,0.0485 -0.20345,0.20345 0.15819,0.34825 0.80423,0.32183 0.71381,-0.029 0.85898,-0.17449 0.37019,-0.37027 z m 193.61947,11.02898 c -0.4424,-0.17702 -0.9709,-0.1553 -1.1745,0.0485 -0.2034,0.20381 0.1582,0.34861 0.8042,0.32182 0.7138,-0.029 0.859,-0.17449 0.3703,-0.37022 z m -48.67297,-0.007 c -0.58975,-0.15422 -1.55479,-0.15422 -2.14454,0 -0.58974,0.15421 -0.10715,0.28019 1.07227,0.28019 1.17946,0 1.66198,-0.12634 1.07227,-0.28019 z m -48.74954,6.13097 c -0.4423,-0.17702 -0.97076,-0.15494 -1.17435,0.0485 -0.20381,0.20344 0.1582,0.34825 0.80417,0.32182 0.7138,-0.029 0.85897,-0.17449 0.37018,-0.37019 z m -4.71023,0.41855 c -0.20815,-0.33703 -0.6544,-0.61273 -0.99139,-0.61273 -0.33703,0 -0.44234,0.27585 -0.23422,0.61273 0.20815,0.33703 0.6544,0.61274 0.99139,0.61274 0.33703,0 0.44234,-0.27549 0.23386,-0.61274 z m 299.31354,11.02894 c 0,-0.33703 -0.5677,-0.6127 -1.2616,-0.6127 -0.6939,0 -1.0912,0.27585 -0.8829,0.6127 0.2081,0.33703 0.776,0.61274 1.2616,0.61274 0.4856,0 0.8829,-0.27549 0.8829,-0.61274 z m 58.936,43.69728 c -0.4423,-0.17703 -0.9708,-0.15494 -1.1744,0.0485 -0.2035,0.20344 0.1582,0.34825 0.8042,0.32182 0.7138,-0.029 0.8589,-0.17449 0.3702,-0.37022 z m -15.7894,34.97165 c 1.1971,-0.45932 1.2765,-1.46625 0.1155,-1.46625 -0.4695,0 -1.0122,0.41364 -1.2062,0.91911 -0.3943,1.02749 -0.2932,1.07817 1.0905,0.54714 z M 236.87442,357.52039 c 0,-0.33703 -0.53515,-0.61273 -1.18923,-0.61273 -0.65415,0 -1.3597,0.27548 -1.568,0.61273 -0.21467,0.34753 0.29974,0.61273 1.1893,0.61273 0.86238,0 1.56793,-0.27585 1.56793,-0.61273 z m 28.16738,78.45219 c 0.49574,-0.3135 0.69597,-0.77542 0.44495,-1.0264 -0.25087,-0.25087 -0.92247,0.0109 -1.49216,0.57936 -1.10742,1.10742 -0.44451,1.3904 1.04721,0.44704 z m -4.57762,0.0181 c 1.06553,-0.41996 0.95986,-0.54185 -0.80974,-0.93434 -1.1193,-0.24834 -2.19924,-0.28744 -2.39983,-0.0865 -0.20055,0.20055 0.30192,0.40096 1.11607,0.44531 1.11466,0.0605 0.95056,0.19222 -0.66374,0.53211 -2.09407,0.44078 -2.10128,0.45229 -0.30662,0.489 1.01098,0.0217 2.38962,-0.17992 3.0636,-0.44534 z m -3.52314,1.37212 c -0.58975,-0.15421 -1.55479,-0.15421 -2.14454,0 -0.58974,0.15422 -0.10751,0.2802 1.07227,0.2802 1.1795,0 1.66198,-0.12634 1.07227,-0.2802 z m 11.92726,2.96803 c -0.46033,-0.29214 -0.61251,-0.95291 -0.36686,-1.59309 0.35694,-0.92996 0.19911,-1.02213 -1.05152,-0.61461 -0.8092,0.2639 -1.94818,0.51966 -2.53105,0.56886 -0.58291,0.0489 -1.24922,0.27874 -1.48076,0.51036 -0.23132,0.23132 -0.94274,0.42094 -1.58042,0.42094 -0.63775,0 -0.98908,0.27585 -0.78082,0.61273 0.20816,0.33703 2.22357,0.6085 4.47837,0.60336 2.35009,-0.007 3.76402,-0.22227 3.31306,-0.50855 z m 1040.1101,46.83165 c 0.2295,-0.22951 -0.6154,-0.30372 -1.8779,-0.16471 -1.2624,0.13901 -2.4832,0.44085 -2.7129,0.67044 -0.2295,0.22951 0.6155,0.30373 1.8779,0.16471 1.2625,-0.13901 2.4833,-0.44081 2.7129,-0.67044 z m -20.677,38.24157 1.5318,-0.49056 -1.5318,-0.0181 c -0.8425,-0.0109 -2.0832,0.21901 -2.7572,0.50858 -1.2255,0.52658 -1.2255,0.52658 0,0.50855 0.674,-0.0109 1.9147,-0.23856 2.7572,-0.50855 z M 303.16307,534.789 c -0.44234,-0.17702 -0.9708,-0.15494 -1.17439,0.0485 -0.20345,0.20345 0.1582,0.34825 0.8042,0.32182 0.71377,-0.029 0.85897,-0.17449 0.37019,-0.37022 z m 784.28113,11.02901 c -0.4422,-0.17702 -0.9707,-0.15494 -1.1743,0.0485 -0.2038,0.20345 0.1582,0.34861 0.8041,0.32182 0.7139,-0.029 0.859,-0.17448 0.3702,-0.37022 z m -604.40914,5.79115 c -1.60048,-0.76449 -2.91015,-1.72493 -2.91044,-2.13429 -2.5e-4,-0.40943 -0.55583,-1.04157 -1.23463,-1.40484 -0.92623,-0.4957 -1.19379,-0.47554 -1.07226,0.0811 0.0891,0.40787 -0.80312,1.02307 -1.98261,1.36719 -1.17946,0.34427 -2.28239,0.79971 -2.45087,1.01243 -0.1687,0.2125 -0.99571,0.18824 -1.83817,-0.0547 -0.98032,-0.28237 -1.14579,-0.46323 -0.45953,-0.50233 0.58974,-0.0326 1.07226,-0.33666 1.07226,-0.6738 0,-0.33703 -0.48252,-0.63446 -1.07226,-0.66106 -0.58975,-0.029 -0.74455,-0.18173 -0.34391,-0.345 1.33393,-0.54312 -1.7009,-3.28309 -3.63634,-3.28309 -2.21943,0 -4.13826,0.99726 -4.13826,2.15077 0,0.65328 -0.47658,0.78686 -1.83664,0.51488 -1.01015,-0.202 -2.18197,-0.0876 -2.60407,0.25449 -1.08581,0.87986 -7.2389,0.52723 -8.88593,-0.50923 -1.19285,-0.75066 -1.56442,-0.7469 -2.75727,0.029 -0.75822,0.49236 -2.48149,0.90339 -3.8295,0.91323 -1.62672,0.0109 -2.39936,0.27549 -2.2977,0.78386 0.16218,0.81235 -1.44011,1.08704 -1.78706,0.30662 -0.11258,-0.25268 -1.55783,-0.94513 -3.21213,-1.53861 -2.68849,-0.96449 -3.11646,-0.98071 -4.03089,-0.15313 -0.5627,0.50924 -1.46762,0.92588 -2.01095,0.92588 -0.54331,0 -1.15825,0.27585 -1.36651,0.6127 -0.47832,0.7739 -3.36997,0.8093 -3.36997,0.0413 0,-0.31422 -0.57223,-0.75301 -1.27163,-0.97499 -0.69936,-0.22191 -1.11534,-0.55988 -0.92435,-0.75084 0.64104,-0.64108 -1.0033,-1.99177 -2.4248,-1.99177 -1.35373,0 -5.13748,1.67892 -5.81689,2.58101 -0.43492,0.57751 -3.04217,-0.12019 -3.04217,-0.81427 0,-0.8194 -2.61432,-0.61081 -3.81995,0.30445 -0.58454,0.44382 -0.88323,0.98655 -0.66382,1.20596 0.73912,0.73907 -0.36526,0.40671 -2.71046,-0.81564 -1.9379,-1.01008 -2.71325,-1.1088 -4.60532,-0.58642 -1.58882,0.43872 -2.64751,0.42894 -3.50949,-0.0326 -0.67891,-0.36331 -1.23437,-0.47926 -1.23437,-0.25739 0,0.22155 -0.3728,0.0934 -0.82835,-0.28454 -0.61136,-0.50742 -1.34323,-0.50807 -2.7934,0 -1.08074,0.37675 -3.07193,0.50797 -4.42483,0.29178 -1.43941,-0.23023 -2.3158,-0.16 -2.11264,0.16834 1.00421,1.62487 -4.71935,1.02068 -7.5735,-0.79946 -0.55228,-0.35224 -0.95943,-0.33341 -1.08722,0.0496 -0.11222,0.33703 -1.06387,0.48669 -2.11452,0.33269 -1.42762,-0.2096 -1.78963,-0.0851 -1.4328,0.49211 0.36165,0.58504 0.21431,0.6253 -0.60636,0.16616 -0.71982,-0.4028 -1.64366,-0.3952 -2.75093,0.0217 -1.8301,0.69079 -3.98669,0.18571 -3.38232,-0.79225 0.2096,-0.34101 0.0731,-0.61867 -0.30372,-0.61867 -0.37678,0 -0.5209,-0.26572 -0.32038,-0.59029 0.39734,-0.64293 -10.2739,-0.39043 -12.02537,0.28454 -0.55564,0.21394 -1.18485,0.10679 -1.39825,-0.23821 -0.21323,-0.34499 -0.83794,-0.45497 -1.38794,-0.24399 -0.60905,0.2335 -0.84656,0.13575 -0.60753,-0.25123 0.69984,-1.13244 -1.73325,-2.73465 -3.48505,-2.29495 -0.87979,0.22082 -1.44709,0.64835 -1.26065,0.94998 0.4301,0.69589 -2.36283,1.77782 -4.52322,1.75219 -1.80606,-0.0217 -3.12218,-0.89242 -4.15799,-2.75184 -0.43441,-0.77987 -1.45448,-1.27811 -2.86378,-1.39873 -1.20396,-0.10317 -2.5195,-0.58558 -2.92339,-1.07223 -0.86698,-1.04472 -2.22809,-1.16179 -2.54246,-0.21901 -0.35259,1.05811 -6.50554,1.12856 -6.90824,0.0793 -0.1839,-0.47981 -0.74602,-0.71454 -1.24871,-0.52166 -0.50264,0.19295 -0.91389,0.0539 -0.91389,-0.30915 0,-0.40085 -0.61139,-0.50649 -1.55743,-0.26898 -0.99099,0.2487 -1.87777,0.0706 -2.43805,-0.48976 -0.60625,-0.60621 -1.65253,-0.77705 -3.3581,-0.54829 -1.85004,0.24797 -2.78062,0.0583 -3.67467,-0.75121 -0.65849,-0.59586 -1.05011,-1.32151 -0.87034,-1.61245 0.17992,-0.29106 -0.37573,-0.26173 -1.23455,0.0648 -0.85883,0.32653 -1.95148,0.44396 -2.42817,0.261 -0.4767,-0.18281 -1.44905,0.16617 -2.16076,0.77539 -0.81158,0.69487 -2.00759,1.0331 -3.20804,0.90719 -1.56507,-0.16435 -1.84364,-0.0145 -1.52796,0.8054 0.21213,0.55344 0.15312,0.86223 -0.13141,0.68633 -0.2849,-0.17594 -1.68808,-0.46703 -3.1186,-0.64673 -1.43051,-0.17955 -2.8423,-0.47597 -3.1373,-0.65831 -0.49385,-0.30517 -2.02891,-0.61212 -5.1605,-1.03172 -0.67395,-0.0905 -1.52405,-0.5453 -1.8891,-1.01109 -0.39608,-0.50537 -2.0165,-0.89402 -4.01916,-0.96396 -1.84552,-0.0644 -3.68372,-0.32001 -4.0849,-0.56795 -0.40585,-0.25087 -0.72941,-0.13177 -0.72941,0.26861 0,0.47756 -0.50761,0.38673 -1.51023,-0.27042 -0.83066,-0.54425 -1.86459,-0.98535 -2.2977,-0.98018 -0.55365,0.007 -0.51459,0.18571 0.13141,0.60333 0.69643,0.45012 0.43202,0.59626 -1.09149,0.60336 -1.22529,0.007 -2.1478,-0.34826 -2.36189,-0.90622 -0.19295,-0.50355 -0.56632,-0.7827 -0.8291,-0.62026 -0.66436,0.41059 -4.81891,-1.08882 -5.03659,-1.81775 -0.0981,-0.32798 -0.79848,-0.51503 -1.5567,-0.41566 -0.75823,0.0992 -1.37864,-0.13105 -1.37864,-0.51214 0,-0.38097 -0.31821,-0.49591 -0.70736,-0.25557 -0.39981,0.24725 -0.54244,0.17014 -0.32798,-0.17666 0.20888,-0.33776 -0.60249,-1.48308 -1.80255,-2.54554 -1.20002,-1.06245 -1.81066,-1.93594 -1.35695,-1.94108 0.62859,-0.007 0.60618,-0.1506 -0.0941,-0.60336 -0.64615,-0.41754 -0.68525,-0.59674 -0.13141,-0.60336 0.58348,-0.007 0.62605,-0.31097 0.16435,-1.17352 -0.34282,-0.64029 -0.55916,-2.21868 -0.48111,-3.50743 0.13213,-2.1795 -0.0109,-2.39327 -2.00256,-3.05824 -1.68873,-0.56296 -2.23967,-0.54978 -2.59223,0.0619 -0.42985,0.74581 -6.173,0.78918 -11.19394,0.0843 -1.01098,-0.14191 -3.35462,-0.44987 -5.20814,-0.68434 -2.11452,-0.26752 -3.78577,-0.86933 -4.48618,-1.61543 -0.81456,-0.86766 -1.80816,-1.15154 -3.67631,-1.0504 -3.24239,0.17558 -6.55441,-0.59275 -6.37445,-1.47873 0.076,-0.37388 -1.24057,-0.97384 -2.92553,-1.33327 -1.68501,-0.35948 -3.40827,-0.8765 -3.82951,-1.14913 -0.42127,-0.27259 -1.05826,-0.31494 -1.41563,-0.0941 -0.3573,0.22083 -1.39127,0.12489 -2.2977,-0.21286 -3.67616,-1.37035 -4.14246,-1.51685 -5.19706,-1.63284 -0.60398,-0.0666 -1.20201,0.0471 -1.32886,0.25232 -0.40632,0.65744 -6.78031,0.23676 -8.23869,-0.54377 -0.77416,-0.41428 -1.93052,-0.61654 -2.56975,-0.4494 -0.6392,0.16689 -1.31659,0.0539 -1.5053,-0.25123 -0.18861,-0.30517 -0.80942,-0.56383 -1.37926,-0.57444 -1.30377,-0.0253 -3.22411,-2.60975 -3.54355,-4.77097 -0.13358,-0.90386 -0.32255,-2.21328 -0.42007,-2.90993 -0.41986,-3.00051 -5.15681,-7.00511 -8.28626,-7.00511 -0.92786,0 -2.30031,-0.4296 -3.04985,-0.95458 -0.74957,-0.52502 -1.62997,-0.78947 -1.9565,-0.58772 -0.32654,0.202 -1.39641,-0.0485 -2.37757,-0.55554 -2.98892,-1.54563 -3.12608,-5.07351 -0.34716,-8.93114 0.36411,-0.50547 1.14376,-2.2977 1.73257,-3.98267 2.22363,-6.36363 1.74144,-6.08463 12.31063,-7.12493 3.36997,-0.3316 8.1951,-1.15684 10.72261,-1.83357 2.52743,-0.67674 5.00896,-1.29994 5.51447,-1.38483 1.84077,-0.30915 4.55011,-1.20024 6.08633,-2.00194 0.86495,-0.45132 1.87459,-0.82237 2.24358,-0.8244 0.369,0 1.17352,-0.55916 1.78778,-1.23785 0.69169,-0.76442 1.54418,-1.09852 2.23949,-0.87784 0.76243,0.24219 1.12262,0.0485 1.12262,-0.60404 0,-0.52825 0.28744,-0.96041 0.63837,-0.96041 0.35115,0 1.21548,-0.53773 1.92089,-1.19484 0.7054,-0.65719 2.19865,-1.62966 3.31831,-2.16094 1.11965,-0.53132 2.17632,-1.19347 2.34813,-1.47145 0.17159,-0.27803 1.58632,-0.99201 3.14339,-1.58665 1.5571,-0.59463 3.90353,-1.78332 5.21429,-2.64157 1.31079,-0.85814 3.00988,-1.64721 3.77571,-1.75343 2.39215,-0.33196 3.18889,-0.56237 4.56894,-1.3218 0.7361,-0.40501 2.04581,-0.73639 2.91043,-0.73639 0.86466,0 1.5721,-0.25015 1.5721,-0.55612 0,-0.3059 1.3786,-0.9094 3.0636,-1.34124 1.68497,-0.43184 3.06357,-0.96681 3.06357,-1.18887 0,-0.22191 0.85553,-0.42793 1.90112,-0.45769 1.04559,-0.029 2.03897,-0.19186 2.20752,-0.36056 0.1687,-0.16869 0.98314,-0.0489 1.81026,0.26535 0.87783,0.33378 1.36061,0.33993 1.15984,0.0145 -0.18933,-0.30626 0.76003,-0.7431 2.10949,-0.97109 1.34939,-0.22807 2.45348,-0.65907 2.45348,-0.95806 0,-0.29901 -0.75827,-0.40114 -1.68497,-0.22698 -7.188,1.34972 -11.09761,1.80092 -12.40761,1.432 -1.64873,-0.46438 -0.6522,-0.76894 1.83817,-0.5618 0.8425,0.0699 1.33812,-0.0699 1.10144,-0.31169 -0.686,-0.69962 1.28289,-2.28782 2.33546,-1.88385 0.60398,0.23168 0.85575,0.0847 0.68561,-0.40006 -0.1658,-0.47227 -1.12574,-0.69737 -2.50209,-0.5866 -2.53927,0.20454 -2.8763,-0.24254 -0.85452,-1.13261 1.29562,-0.57049 1.28161,-0.58823 -0.23205,-0.29359 -0.88594,0.17232 -2.88441,-0.0699 -4.44115,-0.53834 -1.55671,-0.46848 -2.69262,-0.62892 -2.52428,-0.35658 0.16833,0.27223 -0.17739,0.36881 -0.76837,0.21431 -0.59094,-0.15458 -2.72816,0.181 -4.7494,0.74631 -4.75458,1.32905 -13.78585,2.80086 -15.16347,2.47122 -0.58971,-0.14119 -1.07227,-0.0757 -1.0723,0.14552 0,0.22119 -4.06695,0.48611 -9.03761,0.5887 -4.97066,0.10281 -11.18167,0.27115 -13.80225,0.37497 -2.62057,0.10353 -4.90412,-0.0373 -5.07455,-0.31278 -0.17051,-0.27548 -0.64572,-0.38691 -1.0562,-0.24725 -0.41041,0.1401 -2.44754,0.37761 -4.52691,0.52814 -2.07934,0.15059 -4.23068,0.52567 -4.78072,0.83352 -1.11154,0.62208 -4.61209,0.2925 -4.61209,-0.43401 0,-0.99878 -5.4778,-1.83553 -10.72261,-1.63798 -5.47765,0.20635 -6.20235,0.42934 -13.21934,4.06752 -0.53077,0.27513 -2.32297,0.39767 -3.98267,0.27223 -2.51552,-0.19041 -3.34915,-0.58623 -5.00907,-2.38002 -1.46305,-1.58107 -2.00932,-2.76393 -2.05917,-4.45863 -0.15784,-5.37043 0.36277,-6.42786 3.74555,-7.6071 1.74304,-0.60767 1.85175,-0.81676 1.53365,-2.94953 -0.24399,-1.63657 -0.0738,-2.51831 0.59311,-3.07179 0.51449,-0.42702 0.93547,-1.16302 0.93547,-1.63562 0,-1.02684 2.17683,-1.9252 6.70131,-2.76549 3.70432,-0.68803 18.22925,-6.21224 24.02102,-9.13596 2.05595,-1.03781 4.3665,-2.51538 5.13461,-3.28349 0.76814,-0.76814 1.79733,-1.55041 2.28717,-1.73836 0.48983,-0.18825 1.60163,-1.5377 2.47063,-2.99946 0.869,-1.46171 3.25301,-4.44488 5.29777,-6.62923 2.04477,-2.18443 3.71775,-4.30754 3.71775,-4.71816 0,-0.41059 0.35839,-0.96704 0.79667,-1.23652 0.43814,-0.26933 1.41719,-1.37935 2.1756,-2.46643 2.24329,-3.21517 9.19349,-5.59661 19.17068,-6.5686 1.80671,-0.1763 4.7493,-0.62312 6.5391,-0.99364 1.78977,-0.37044 3.65093,-0.52136 4.13587,-0.33522 0.48491,0.18607 0.88167,0.13648 0.88167,-0.10969 0,-0.24653 1.7922,-0.96124 3.98267,-1.58853 2.19048,-0.62732 3.98267,-1.33501 3.98267,-1.5726 0,-0.23783 1.30971,-0.99997 2.91044,-1.69412 5.52167,-2.39447 6.58833,-2.843 7.04627,-2.96286 0.25268,-0.0662 0.66635,-0.1839 0.91906,-0.26173 0.25268,-0.0778 1.16158,-0.0974 2.01965,-0.0438 0.88956,0.0557 2.04397,-0.43666 2.68595,-1.14601 0.61922,-0.6843 1.36665,-1.09526 1.661,-0.91331 0.29432,0.18173 0.7006,-0.10064 0.90274,-0.62718 0.20237,-0.5269 0.81304,-0.95795 1.3575,-0.95795 0.73469,0 0.62392,-0.2563 -0.42992,-0.99443 -1.08983,-0.76333 -2.08256,-0.88956 -4.27217,-0.54323 -1.56883,0.24797 -4.23111,0.66117 -5.91608,0.91787 -2.00553,0.30554 -4.7393,0.1553 -7.91571,-0.43445 -3.69317,-0.686 -5.82011,-0.75757 -8.90493,-0.29938 -3.59839,0.53404 -8.48572,0.45422 -9.08846,-0.14842 -1.00244,-1.00247 7.80866,-6.46289 10.4288,-6.46289 1.5381,0 1.34008,-1.06076 -0.29468,-1.57966 -1.85163,-0.58772 -3.06186,-2.23396 -2.09465,-2.84933 0.48842,-0.31097 0.41827,-0.45697 -0.22227,-0.46341 -0.51485,-0.007 -1.40825,-0.56082 -1.98532,-1.23481 -1.12444,-1.31322 -4.38414,-1.68033 -5.06975,-0.57092 -0.22263,0.35983 -0.78798,0.50735 -1.25667,0.32762 -0.78368,-0.30083 -5.32094,0.81622 -8.70304,2.14243 -0.77412,0.30373 -2.32883,0.55188 -3.45493,0.55188 -1.83278,0 -2.08745,-0.21286 -2.42821,-2.02934 -0.30915,-1.6492 -0.8673,-2.24514 -2.9786,-3.18166 -1.42888,-0.6338 -4.0356,-1.34985 -5.79275,-1.59117 -1.75715,-0.24146 -4.07422,-0.87758 -5.14906,-1.41375 -1.07487,-0.53617 -2.3255,-0.97488 -2.7792,-0.97488 -0.45371,0 -0.82495,-0.24581 -0.82495,-0.54631 0,-0.30047 -0.71181,-0.72499 -1.58176,-0.94328 -1.3766,-0.34536 -6.47582,-3.43742 -8.65543,-5.24825 -0.40704,-0.33812 -1.02738,-0.6148 -1.37864,-0.6148 -0.59727,0 -0.80025,-0.77908 -0.811,-3.11244 -0.003,-0.68539 -1.04183,-1.18225 -3.55807,-1.70194 -10.02683,-2.07102 -12.14089,-5.69226 -8.18721,-14.02405 0.53486,-1.12708 0.8602,-2.38151 0.723,-2.78758 -0.54359,-1.60869 10.55521,-6.21126 18.54738,-7.6914 1.85344,-0.34318 5.43787,-1.36289 7.96533,-2.26577 2.52747,-0.90289 6.24975,-2.04691 8.27171,-2.54224 2.02196,-0.49534 5.19282,-1.40926 7.04627,-2.03105 1.85348,-0.62178 4.54179,-1.43684 5.97404,-1.81134 1.43225,-0.37439 2.60403,-0.9334 2.60403,-1.24205 0,-0.30879 1.03397,-0.75504 2.2977,-0.99165 1.26374,-0.23675 3.26275,-0.83338 4.44224,-1.32604 2.24318,-0.93705 5.76491,-1.87531 11.94801,-3.18321 2.02199,-0.42771 4.50352,-1.12508 5.51447,-1.54975 1.01101,-0.42464 3.35465,-1.24296 5.20813,-1.81844 1.85349,-0.57556 4.19716,-1.39536 5.20814,-1.82174 1.01095,-0.42648 3.63037,-1.48383 5.82084,-2.34972 9.01484,-3.56353 13.30905,-5.34632 15.74793,-6.53815 1.41593,-0.69187 2.91464,-1.25798 3.33048,-1.25798 0.41576,0 1.3252,-0.50681 2.02091,-1.12628 0.69571,-0.61947 2.22997,-1.49122 3.40946,-1.93729 1.17946,-0.44607 2.69595,-1.26149 3.36994,-1.81207 0.67398,-0.55054 2.05262,-1.40158 3.0636,-1.89116 1.01102,-0.48962 2.05867,-1.23532 2.32815,-1.6571 0.26933,-0.42181 1.14933,-0.76687 1.95517,-0.76687 0.80586,0 1.63562,-0.27585 1.84388,-0.61274 0.20816,-0.33703 1.3049,-0.6127 2.43693,-0.6127 2.5261,0 4.10329,-0.55724 3.6506,-1.28965 -0.18643,-0.30192 0.16001,-0.59051 0.76941,-0.64184 0.60963,-0.0514 1.41567,-0.12417 1.79126,-0.16218 0.37558,-0.038 1.12012,-0.43199 1.65455,-0.87552 0.5344,-0.44349 1.33002,-0.86071 1.76802,-0.92706 0.43799,-0.0663 1.07208,-0.28346 1.40904,-0.48252 0.33703,-0.19911 1.70803,-0.71541 3.0467,-1.1475 1.33867,-0.43216 2.77913,-1.13084 3.20102,-1.55276 0.42188,-0.42188 3.18672,-1.531 6.14411,-2.46462 2.95739,-0.93377 5.5149,-1.85989 5.68345,-2.05809 0.1687,-0.19802 1.20245,-0.41732 2.2977,-0.48694 3.62903,-0.23096 4.44221,-0.4221 4.44221,-1.04584 0,-0.33993 0.42923,-0.007 0.95382,0.74403 1.17135,1.6723 1.54653,1.68769 3.33521,0.13612 0.77709,-0.67395 1.66274,-1.22543 1.96806,-1.22543 0.30517,0 0.38471,-0.27549 0.17666,-0.6127 -0.22046,-0.35658 0.39198,-0.61274 1.46519,-0.61274 1.01413,0 2.06439,-0.34463 2.33387,-0.7659 0.26933,-0.42123 1.59287,-0.80891 2.94088,-0.86154 4.17522,-0.1629 6.32424,-0.49888 6.04981,-0.94586 -0.14481,-0.23566 0.29576,-0.72807 0.97926,-1.09384 0.89645,-0.47973 1.24263,-0.47821 1.24263,0.007 0,0.36871 0.25667,0.51177 0.57038,0.31784 0.3135,-0.19367 0.74357,-0.0724 0.95523,0.27042 0.21178,0.34246 1.22526,0.62269 2.25242,0.62269 1.40832,0 1.78083,-0.22625 1.51486,-0.91906 -0.25558,-0.66588 0.0695,-0.91907 1.17913,-0.91907 0.84247,0 1.68989,-0.412 1.88313,-0.91563 0.19295,-0.50351 0.57748,-0.77574 0.85394,-0.60491 0.27621,0.17087 1.14362,0.0539 1.92712,-0.25992 2.06605,-0.82766 3.8299,-1.47569 4.18177,-1.53651 0.16869,-0.029 0.94918,-0.69574 1.73485,-1.48141 1.31206,-1.31206 1.51569,-1.34953 2.49912,-0.45953 1.35279,1.22427 1.41745,1.21899 3.11867,-0.25667 0.77712,-0.67395 1.85326,-1.22963 2.39146,-1.23477 0.71996,-0.007 0.77578,-0.13829 0.21141,-0.49657 -0.55087,-0.3497 -0.24363,-0.87428 1.08928,-1.85967 1.02108,-0.75493 1.72566,-1.58429 1.56573,-1.84309 -0.16001,-0.25884 0.7285,-0.83128 1.97428,-1.27231 2.89027,-1.02315 3.80159,-1.75915 3.41757,-2.75988 -0.18498,-0.48194 0.31567,-0.95487 1.26189,-1.19238 0.86256,-0.21649 1.56829,-0.68268 1.56829,-1.03593 0,-0.37859 0.54131,-0.47057 1.31815,-0.22372 1.02209,0.32436 1.23777,0.20888 0.9603,-0.51412 -0.24545,-0.63989 0.25449,-1.1909 1.59225,-1.75571 1.0726,-0.45272 2.22588,-0.86034 2.56287,-0.9057 0.33703,-0.0453 0.75059,-0.14987 0.91907,-0.23205 0.1687,-0.0822 0.9957,-0.24942 1.83817,-0.3711 7.16798,-1.03581 9.15196,-1.39358 10.95458,-1.97555 2.67839,-0.86462 6.34141,-1.07317 7.39644,-0.42116 0.52673,0.32545 1.08809,0.1582 1.53894,-0.45812 0.55416,-0.75783 2.38009,-1.04928 8.33194,-1.32954 8.37339,-0.39434 11.43424,-0.6649 14.6685,-1.29661 2.30327,-0.44994 6.16604,-0.4511 10.10987,-0.007 1.34801,0.15313 4.12208,0.39444 6.16464,0.53639 2.04259,0.14191 4.66197,0.67974 5.82083,1.19517 1.1589,0.51543 2.65852,1.14119 3.3325,1.39054 1.99775,0.73926 6.95943,0.92674 7.36028,0.27839 0.48766,-0.78903 5.01895,-0.77705 5.50824,0.0145 0.20925,0.33811 1.09363,0.43586 1.96571,0.21684 1.11165,-0.27875 1.45592,-0.18824 1.15173,0.30409 -0.6523,1.05543 1.83306,0.87077 2.92082,-0.21684 1.07788,-1.07785 2.23207,-1.20517 2.23207,-0.24617 0,1.17338 7.39876,-0.0416 9.4852,-1.55761 1.23669,-0.89858 2.56117,-1.29089 3.99465,-1.18319 7.07552,0.53154 16.54341,-0.0786 16.54341,-1.0663 0,-0.29829 0.84347,-0.54214 1.87429,-0.54214 1.09356,0 1.71661,0.25522 1.49568,0.61274 -0.20816,0.33703 0.0362,0.6127 0.5404,0.6127 0.50551,0 1.10109,-0.29468 1.32354,-0.65452 0.22263,-0.35983 0.72275,-0.53236 1.11165,-0.38311 0.8168,0.3135 2.34259,-1.09891 1.7872,-1.65427 -0.20453,-0.20453 0.0181,-0.40349 0.49639,-0.44233 2.17284,-0.17703 4.85065,-1.19217 4.85065,-1.83897 0,-0.29757 1.17186,-0.55108 2.60407,-0.56307 1.43225,-0.0109 4.22333,-0.40863 6.20247,-0.88138 2.08444,-0.4978 4.85561,-0.71055 6.58674,-0.50551 1.8218,0.21576 2.98837,0.11476 2.98837,-0.25956 0,-0.82349 7.89341,-1.60243 8.7934,-0.86777 0.38702,0.31604 1.53089,0.47022 2.54191,0.34283 4.18525,-0.52716 10.49795,-0.66976 11.64164,-0.26318 0.67398,0.24001 1.71635,0.13213 2.31638,-0.23893 0.71927,-0.44494 1.24122,-0.46616 1.5318,-0.0623 0.60767,0.84457 4.04077,1.17411 3.52422,0.33848 -0.25847,-0.41833 0.744,-0.66073 2.85451,-0.69024 1.78908,-0.0253 3.8733,-0.16109 4.63153,-0.30228 0.75826,-0.14118 1.37864,-0.0521 1.37864,0.19875 0,0.25051 2.27471,0.53342 5.05493,0.62844 2.78022,0.0949 5.74427,0.28092 6.58674,0.41327 6.933,1.08885 9.62616,1.76012 10.41624,2.59643 0.70081,0.74183 0.71468,0.85706 0.0579,0.48549 -0.57686,-0.32653 -0.71594,-0.2534 -0.42195,0.22227 0.25413,0.41103 1.07071,0.55094 1.94079,0.33269 0.82618,-0.20707 1.87723,-0.0655 2.33564,0.31459 0.45841,0.38043 1.28198,0.51962 1.83024,0.30915 0.55055,-0.21141 0.99669,-0.0789 0.99669,0.29576 0,0.94397 1.61933,0.84674 3.23834,-0.1944 1.13196,-0.72789 5.49213,-1.37161 6.5652,-0.96924 0.16869,0.063 2.30534,0.14155 4.7486,0.17413 2.4432,0.0326 4.4422,0.28309 4.4422,0.55724 0,0.27368 0.49628,0.4979 1.10286,0.4979 0.60662,0 1.46831,0.34463 1.91477,0.7659 0.64948,0.6127 0.86802,0.6127 1.09269,0 0.15457,-0.42127 0.54981,-0.7659 0.87866,-0.7659 0.32871,0 0.42739,0.27549 0.21902,0.6127 -0.20816,0.33703 -0.0865,0.61274 0.27042,0.61274 0.35694,0 0.64886,-0.31024 0.64886,-0.68934 0,-0.43912 0.66718,-0.55586 1.83813,-0.32182 1.06014,0.21177 1.83817,0.10896 1.83817,-0.244 0,-0.3363 0.74614,-0.12272 1.65804,0.47488 1.2852,0.84214 2.93157,1.08643 7.32197,1.08643 3.51278,0 5.93672,-0.27296 6.38202,-0.71805 0.39492,-0.39491 1.12585,-0.56151 1.6243,-0.37022 0.49841,0.19114 1.09214,0.0471 1.31941,-0.32074 0.28309,-0.45819 1.17924,-0.49092 2.8486,-0.1039 3.06162,0.70976 6.59145,0.75736 6.17481,0.0833 -0.44454,-0.71927 1.61572,-0.67351 2.54094,0.0565 0.55445,0.43745 0.77129,0.28779 0.78538,-0.54312 0.0181,-1.07394 0.0706,-1.07991 0.82027,-0.093 0.44035,0.57976 1.83585,1.18254 3.10107,1.33947 1.26518,0.15711 2.70876,0.78545 3.2079,1.3967 0.49914,0.61128 0.73292,0.76677 0.51952,0.34535 -0.55058,-1.08696 0.60574,-0.95146 1.54573,0.18101 0.43221,0.52078 1.19691,0.78921 1.69931,0.59644 0.50398,-0.19331 1.44687,0.22191 2.10373,0.92725 0.92095,0.98843 1.61098,1.18543 3.04782,0.8698 1.18029,-0.2592 1.719,-0.1839 1.47783,0.20634 -0.5227,0.84583 1.44094,1.51406 2.31577,0.78806 0.42774,-0.35513 1.063,-0.36936 1.60221,-0.0362 0.88333,0.54595 3.39361,0.21685 4.57994,-0.60068 0.33703,-0.23204 1.89606,-0.40099 3.46471,-0.37507 1.56855,0.0253 2.72407,-0.15965 2.56783,-0.4124 -0.15602,-0.25268 0.31748,-0.45953 1.05258,-0.45953 1.11864,0 1.21225,0.14987 0.57389,0.91906 -0.41953,0.50551 -0.66009,0.9304 -0.53454,0.9443 5.15507,0.57042 7.27444,0.59974 7.27444,0.101 0,-0.33124 0.97272,-0.7848 2.16155,-1.00779 1.18887,-0.223 2.00622,-0.6568 1.81649,-0.96389 -0.2049,-0.33196 -0.99835,-0.30988 -1.95496,0.0539 -1.05829,0.40234 -1.81699,0.40502 -2.21418,0.0109 -0.39723,-0.39723 -0.20562,-0.60093 0.5593,-0.59445 0.63999,0.007 2.37763,-0.18825 3.86147,-0.43086 2.22019,-0.36263 2.61109,-0.28852 2.20781,0.41851 -0.39636,0.69492 -0.33232,0.71273 0.33522,0.0934 0.45385,-0.42123 1.66615,-0.76166 2.69396,-0.75652 1.28104,0.007 1.60735,0.17485 1.03748,0.5361 -0.57954,0.36722 -0.62591,0.65371 -0.15313,0.94585 0.67598,0.41779 0.93452,-0.35984 0.69951,-2.10406 -0.0996,-0.73774 0.0326,-0.76793 0.66265,-0.15313 0.94017,0.91555 1.99847,1.02361 1.45781,0.14878 -0.55518,-0.89825 1.49155,-1.50914 2.31091,-0.68973 0.38174,0.38174 1.39721,0.68988 2.25655,0.6847 1.23376,-0.007 1.36911,-0.1343 0.64336,-0.60332 -1.22424,-0.79117 -0.61484,-0.76326 1.81254,0.0829 1.60159,0.55829 2.10145,0.52802 2.53289,-0.15313 0.42935,-0.67804 0.53947,-0.63692 0.54693,0.20417 0.007,0.69506 0.33051,0.92986 0.95353,0.69068 0.51926,-0.19947 0.86393,-0.0804 0.7659,0.26426 -0.0981,0.34463 0.0974,0.58526 0.43448,0.53469 0.33703,-0.0503 0.5744,-0.43655 0.52759,-0.85782 -0.0463,-0.42123 0.12634,-0.7659 0.38456,-0.7659 0.71352,0 1.88429,1.59476 1.47279,2.00622 -0.19874,0.1991 0.21685,0.21032 0.92443,0.0253 0.70729,-0.18499 1.28603,-0.63185 1.28603,-0.9931 0,-0.36128 0.56216,-0.0532 1.24933,0.68416 1.33736,1.43561 2.16933,1.79846 1.44821,0.63178 -0.3001,-0.48589 -0.0217,-0.60054 0.88232,-0.36389 0.72637,0.19005 1.47508,0.0956 1.66379,-0.20961 0.18861,-0.30517 0.67153,-0.53345 1.07285,-0.50685 0.52622,0.0362 0.51611,0.13467 -0.0362,0.35731 -0.88399,0.35657 -1.04653,2.04509 -0.19693,2.04509 0.31313,0 1.00935,-0.44038 1.54758,-0.97858 0.5382,-0.53823 1.38504,-0.82263 1.8819,-0.63199 1.16024,0.44523 2.83807,-0.18825 2.39541,-0.90455 -0.45468,-0.73571 0.15964,-0.69144 1.67758,0.12091 0.90466,0.48418 1.43627,0.48418 1.92045,0 0.99082,-0.99082 2.28134,-0.81869 1.87137,0.24978 -0.19404,0.50551 -0.0746,0.9191 0.26571,0.9191 0.33993,0 0.88573,-0.76713 1.21262,-1.70476 0.52965,-1.51939 0.88594,-1.70264 3.27672,-1.68497 1.8112,0.0109 2.63267,0.26861 2.52924,0.78566 -0.084,0.42124 0.1915,0.78176 0.61273,0.8012 0.42124,0.0181 1.74235,0.13901 2.93582,0.26572 1.7658,0.18752 2.27931,-0.0181 2.75723,-1.10757 0.56673,-1.29092 3.95726,-2.33177 3.95726,-1.21475 0,0.28092 0.96504,0.46547 2.14453,0.41001 1.1795,-0.0558 2.1445,0.12055 2.1445,0.39151 0,0.27114 0.55149,0.34825 1.22547,0.17195 0.67395,-0.17629 1.22544,-0.53754 1.22544,-0.80286 0,-0.26535 1.37943,-0.49316 3.06537,-0.50623 3.28838,-0.0253 4.51873,-0.44904 3.95473,-1.36166 -0.19368,-0.3135 0.0771,-0.57038 0.60274,-0.57038 0.52535,0 0.95523,0.27585 0.95523,0.6127 0,0.33703 0.56774,0.61274 1.26156,0.61274 0.69394,0 1.0912,0.27585 0.88294,0.61273 -0.44103,0.71355 0.29829,0.79407 1.3201,0.14372 0.64017,-0.40737 0.82444,-0.78049 0.82444,-1.66958 0,-0.16508 0.55144,0.17159 1.22543,0.74885 0.67399,0.57711 1.22543,1.39474 1.22543,1.81702 0,0.57031 0.40288,0.61455 1.56681,0.17196 1.03632,-0.39401 1.43902,-0.38887 1.18927,0.0145 -0.52694,0.85267 3.55934,0.77803 5.48678,-0.10028 0.85839,-0.39111 1.56065,-0.94256 1.56065,-1.22543 0,-0.28273 0.56774,-0.51438 1.2616,-0.51438 0.76137,0 1.09648,-0.26716 0.84511,-0.67388 -0.30264,-0.48998 -0.0728,-0.48998 0.84268,0 0.69252,0.37063 2.58691,0.70646 4.20983,0.74635 2.70112,0.0662 2.79521,0.11657 1.11252,0.59192 -1.4577,0.41201 -1.2292,0.46196 1.10387,0.24146 1.84784,-0.17485 2.80281,-0.0532 2.56783,0.32726 -0.33703,0.54562 1.11235,0.83236 4.14047,0.81908 0.58975,0 1.07227,0.20164 1.07227,0.45385 0,0.42547 2.14787,1.04537 8.2717,2.38712 1.34798,0.29539 3.14017,0.83913 3.98267,1.20838 1.49032,0.65317 1.48123,0.66367 -0.33522,0.3888 -1.02683,-0.15531 -2.26758,-0.029 -2.75723,0.28091 -0.61252,0.38746 0.0438,0.56608 2.10587,0.57252 2.10443,0.007 3.21959,-0.29648 3.74733,-1.01811 0.66269,-0.90633 0.99559,-0.93091 2.82475,-0.20816 2.84611,1.12458 3.75337,2.08235 1.61398,1.70372 -0.92678,-0.16399 -1.68501,-0.0605 -1.68501,0.22952 0,0.94346 2.98679,0.55629 3.55604,-0.46099 0.44325,-0.792 0.80699,-0.853 1.82833,-0.30662 1.70364,0.91179 1.99846,0.86137 1.56517,-0.26788 -0.2972,-0.77387 -0.0373,-0.87393 1.39786,-0.53925 0.96939,0.22626 2.06859,0.79149 2.44272,1.25657 0.84692,1.05268 1.87629,1.08863 2.28565,0.0796 0.21359,-0.52658 0.46895,-0.56267 0.81698,-0.11548 0.71381,0.91715 3.19371,0.79989 2.83525,-0.13395 -0.15892,-0.41406 -0.74795,-0.87446 -1.30899,-1.02307 -0.56104,-0.14842 -0.0945,-0.30191 1.0368,-0.34101 1.59298,-0.0554 1.97739,0.13612 1.70422,0.84801 -0.25087,0.65346 0.0398,0.90509 1.00671,0.87073 0.74765,-0.0253 1.01301,-0.18824 0.58967,-0.35875 -1.10028,-0.44349 -0.30444,-1.43101 1.15351,-1.43101 0.94151,0 1.14144,0.28055 0.85108,1.19556 -0.30916,0.9746 0.16471,1.44691 2.56283,2.55444 1.61818,0.74733 3.40904,1.33053 3.97963,1.29599 0.6615,-0.0398 0.91527,0.25522 0.70031,0.8155 -0.20671,0.53816 0.0442,0.87841 0.64759,0.87841 0.5416,0 0.98463,-0.33088 0.98463,-0.73528 0,-0.57182 0.16326,-0.57182 0.73527,0 1.06872,1.06872 6.30097,0.93569 7.23007,-0.18353 2.08187,-2.50839 11.75234,0.90172 10.74067,3.78758 -0.15349,0.43846 0.21539,0.63355 0.93637,0.49468 0.65458,-0.12598 1.1901,0.0217 1.1901,0.32907 0,0.30698 0.36606,0.41786 0.81343,0.24616 0.44734,-0.17159 1.5802,-0.0217 2.51744,0.33595 1.41582,0.53823 1.57644,0.80159 0.9497,1.55678 -0.52492,0.63253 -0.54512,0.90889 -0.0666,0.90889 0.37819,0 0.61878,0.33812 0.5345,0.75142 -0.25992,1.27485 2.50803,1.2385 4.32723,-0.0572 l 1.72522,-1.22851 2.56291,1.45567 c 2.46966,1.40286 2.58528,1.41394 3.17919,0.30409 0.41512,-0.77567 0.41255,-1.27756 -0.0109,-1.53748 -1.08512,-0.67062 -0.0843,-1.37444 1.51841,-1.06804 0.84659,0.16182 1.38837,0.53838 1.20386,0.83686 -0.70324,1.1379 2.57348,0.48237 3.41326,-0.68275 0.48578,-0.67402 1.11669,-1.22543 1.40195,-1.22543 0.28526,0 0.34391,0.55141 0.12996,1.22543 -0.41149,1.2965 -0.17557,1.39674 3.0636,1.30091 1.57789,-0.0463 1.66463,0.0253 0.61274,0.50471 -0.67399,0.30735 -0.86448,0.57853 -0.42337,0.60221 0.44111,0.0253 0.63163,0.31892 0.42337,0.65577 -0.2201,0.35586 0.34246,0.59471 1.34247,0.56966 1.51392,-0.038 1.57361,-0.10643 0.49566,-0.56966 -0.92091,-0.39578 -0.98119,-0.53729 -0.24254,-0.56965 0.54051,-0.0253 1.72649,0.64622 2.6356,1.48872 1.84432,1.70929 2.58046,1.89786 2.99036,0.7659 0.20961,-0.57878 0.56068,-0.59974 1.43732,-0.0858 0.6379,0.37407 1.98095,0.59265 2.98436,0.48567 1.331,-0.1419 1.57752,-0.0387 0.91146,0.38268 -0.67706,0.42804 -0.35875,0.58968 1.23156,0.62544 1.90419,0.0431 1.98999,0.11042 0.7659,0.60239 -2.04575,0.82226 -1.67498,1.16526 0.91906,0.85021 1.81978,-0.22119 2.04281,-0.15241 1.07227,0.33051 -0.92797,0.46153 -0.63051,0.5189 1.22543,0.23639 1.34798,-0.20526 2.57225,-0.481 2.72068,-0.61277 0.14806,-0.13177 0.60846,0.5252 1.02249,1.45991 0.46474,1.04935 0.77173,1.31123 0.80246,0.68452 0.0326,-0.70494 0.42402,-0.917 1.27521,-0.69437 1.18312,0.30916 1.79458,-0.73542 0.67308,-1.15006 -0.30372,-0.11259 -0.11331,-0.60883 0.42301,-1.10326 0.86509,-0.79739 0.92971,-0.78009 0.57154,0.15313 -0.47329,1.23354 -0.42011,1.24639 1.74745,0.42228 0.91114,-0.34644 1.48485,-0.80166 1.27481,-1.01163 -0.20997,-0.20996 0.0963,-0.74497 0.6809,-1.1888 1.00743,-0.76499 1.00689,-0.808 -0.0109,-0.8265 -0.58971,-0.0109 -1.07223,-0.29503 -1.07223,-0.63221 0,-0.70754 0.37555,-0.74154 2.34947,-0.21286 1.1043,0.29576 1.244,0.51648 0.6127,0.96852 -0.58067,0.4158 -0.46254,0.46677 0.40776,0.17593 0.67399,-0.22517 1.50016,-0.45801 1.83596,-0.51731 0.33595,-0.0594 0.91328,-0.49312 1.28328,-0.96406 0.42743,-0.54399 1.22884,-0.71663 2.19776,-0.47347 1.13587,0.28526 1.52506,0.13901 1.52506,-0.57139 0,-0.75501 -0.43889,-0.87186 -2.10272,-0.55967 -1.41618,0.26572 -1.97117,0.18137 -1.69988,-0.25739 0.51076,-0.8265 6.45772,-0.86244 6.45772,-0.0391 0,0.33703 0.27548,0.61273 0.61269,0.61273 0.88189,0 0.75624,-1.67812 -0.15312,-2.04505 -0.4746,-0.19151 -0.37483,-0.32762 0.26245,-0.35731 0.56568,-0.0253 1.4421,0.36523 1.94757,0.87074 0.50547,0.50551 1.55917,0.89974 2.3415,0.87602 1.3462,-0.0405 1.35674,-0.0724 0.19694,-0.59058 -0.80468,-0.35947 0.12054,-0.44302 2.69468,-0.24326 2.15608,0.16724 4.17073,0.45891 4.47699,0.64817 0.30662,0.18933 1.29953,0.12924 2.20709,-0.13358 1.58787,-0.46 1.55761,-0.49432 -0.80069,-0.90734 -1.93718,-0.3392 -1.58853,-0.40563 1.6631,-0.31639 2.26266,0.0623 4.30761,0.30662 4.54429,0.54334 0.66964,0.66967 2.79615,0.50608 2.37068,-0.18246 -0.20815,-0.33703 0.0507,-0.6127 0.57657,-0.6127 0.52535,0 0.95523,0.44303 0.95523,0.98463 0,0.64611 0.33305,0.85677 0.96921,0.61274 0.53305,-0.2049 1.42917,-0.39944 1.99137,-0.43304 0.61809,-0.0366 0.41663,-0.25485 -0.50971,-0.55163 -1.26193,-0.40414 -1.31586,-0.49968 -0.30662,-0.54225 0.67398,-0.029 1.63175,0.20526 2.12835,0.51927 0.58881,0.37236 1.05276,0.3287 1.33364,-0.12598 0.32183,-0.52064 1.00852,-0.51967 2.71391,0.007 1.3295,0.40805 2.692,0.4836 3.2617,0.181 1.0331,-0.54873 3.8519,-0.415 4.8995,0.23241 0.3414,0.21105 0.4692,0.85745 0.2835,1.43641 -0.197,0.61462 -0.122,0.79769 0.1799,0.43991 0.5545,-0.65675 11.2858,-0.87627 10.8818,-0.22263 -0.1325,0.21431 0.1759,0.73603 0.6853,1.1589 0.7832,0.64995 0.8617,0.58964 0.5083,-0.39014 -0.2299,-0.63742 -0.1926,-0.95451 0.083,-0.70468 0.2755,0.24978 0.8771,0.1419 1.3371,-0.24002 0.6525,-0.54156 0.7592,-0.49301 0.4852,0.22083 -0.2722,0.70957 0.1716,0.92182 1.9773,0.94585 1.2807,0.0145 4.6721,0.19657 7.5365,0.39886 3.5207,0.2487 4.9104,0.17196 4.2891,-0.23711 -0.6655,-0.43799 -0.022,-0.60752 2.3338,-0.61437 2.1407,-0.007 3.1152,-0.23204 2.8502,-0.66117 -0.2719,-0.43995 0.2928,-0.52129 1.7374,-0.25014 1.2244,0.22951 2.6924,0.10606 3.4303,-0.28889 1.5606,-0.83526 1.7125,-0.17991 0.2176,0.93967 -0.9743,0.72959 -0.9454,0.771 0.316,0.45316 0.7635,-0.19259 1.538,-0.59228 1.7211,-0.88859 0.1832,-0.29648 0.6352,-0.53881 1.0045,-0.53881 0.3694,0 0.2151,0.50424 -0.3424,1.12053 -1.2573,1.38927 -1.2844,1.94307 -0.095,1.94307 0.5055,0 0.9191,-0.44302 0.9191,-0.98462 0,-0.69285 0.3178,-0.85738 1.0722,-0.55511 1.7716,0.70969 7.4702,1.36506 7.1336,0.82042 -0.1719,-0.27838 -0.8642,-0.50612 -1.5382,-0.50612 -0.674,0 -1.0653,-0.2592 -0.8696,-0.57585 0.2111,-0.34137 1.2158,-0.21648 2.4674,0.30662 2.3877,0.99763 2.9647,1.0907 2.5443,0.41045 -0.1604,-0.2592 1.8224,-0.29685 4.406,-0.0829 2.5837,0.21395 4.9963,0.27621 5.3614,0.13901 0.3651,-0.1372 0.6638,0.15096 0.6638,0.64072 0,0.6759 -0.5289,0.80891 -2.1956,0.55231 -1.2076,-0.18607 -1.9944,-0.12091 -1.7486,0.14481 1.0044,1.08457 4.1746,0.77969 5.0617,-0.48679 0.7686,-1.09732 1.0932,-1.16788 2.4756,-0.53798 0.9084,0.41392 1.4272,0.46004 1.2094,0.10751 -0.2096,-0.33956 0.065,-0.61737 0.6099,-0.61737 0.5452,0 0.8388,0.24689 0.6524,0.54852 -0.1864,0.30191 0.096,0.71529 0.6266,0.91906 1.3503,0.51822 1.6087,0.46475 1.1718,-0.24218 -0.211,-0.34174 0.2473,-0.60857 1.0361,-0.60336 1.0272,0.007 1.1871,0.15386 0.5835,0.53617 -1.1798,0.74755 0.1172,1.40488 1.6463,0.83425 1.8652,-0.69596 10.0011,-0.18824 9.5176,0.59366 -0.2701,0.43719 0.3741,0.51278 1.9864,0.23313 1.7117,-0.29685 2.1265,-0.23675 1.4672,0.21214 -0.733,0.49935 -0.5853,0.62797 0.7298,0.63547 0.9068,0.007 1.845,0.32689 2.0848,0.71489 0.3041,0.49153 0.6776,0.37526 1.2323,-0.38337 0.5269,-0.72061 1.314,-0.98994 2.3267,-0.79642 0.8885,0.16979 1.6516,-0.0217 1.8194,-0.46076 0.2172,-0.56593 1.0746,-0.61049 3.4474,-0.17919 1.9607,0.35621 3.4311,0.35657 3.8775,0 0.3968,-0.3164 1.2685,-0.35187 1.9446,-0.0793 1.9413,0.78251 4.74,0.69704 4.2294,-0.12888 -0.3005,-0.48599 -0.022,-0.60042 0.8837,-0.36356 0.7272,0.19041 1.2023,0.15204 1.0559,-0.0851 -0.1462,-0.23712 0.8173,-0.41809 2.1418,-0.40245 1.3244,0.0145 2.4088,0.16652 2.4098,0.33486 0,0.16869 0.8292,0.30662 1.8402,0.30662 1.011,0 1.8381,-0.20707 1.8381,-0.45953 0,-0.25269 0.5677,-0.45954 1.2616,-0.45954 0.6939,0 1.105,0.25341 0.9137,0.56285 -0.1911,0.30952 0.4129,0.70458 1.3425,0.87776 5.1348,0.95672 6.3854,1.05457 6.025,0.47145 -0.7191,-1.1636 5.9006,-0.21178 7.6809,1.10452 1.8135,1.34092 7.9686,1.97928 8.34,0.86513 0.2889,-0.86679 6.6689,-0.36165 8.7,0.68857 1.4749,0.76265 1.8092,0.75917 2.5955,-0.029 0.7478,-0.74772 1.4466,-0.78584 4.0741,-0.22227 1.7443,0.37406 3.3281,0.93351 3.5196,1.24328 0.1915,0.30952 0.8142,0.5589 1.3841,0.55376 0.8964,-0.0109 0.9122,-0.0934 0.1173,-0.63134 -0.6725,-0.45508 -0.4258,-0.51351 0.919,-0.21793 1.011,0.22228 2.1001,0.64423 2.4203,0.93775 0.8049,0.73795 2.3337,0.67315 1.8688,-0.0793 -0.2328,-0.37649 0.7574,-0.60912 2.5679,-0.60336 2.2603,0.007 2.7325,0.16218 2.0275,0.66591 -0.7382,0.52723 -0.6476,0.59688 0.461,0.35405 0.8615,-0.18861 1.5805,0.0558 1.9138,0.65132 0.3146,0.56206 1.0213,0.82632 1.7208,0.6434 0.6528,-0.17087 2.8245,0.0405 4.8261,0.46963 2.0014,0.42906 3.2781,0.80319 2.837,0.83143 -1.4285,0.0912 -0.1857,1.12765 1.6812,1.40162 1.0705,0.15711 1.6637,0.0253 1.4479,-0.32508 -0.2215,-0.35875 0.2726,-0.43112 1.2578,-0.18354 0.8928,0.22408 1.6232,0.16471 1.6232,-0.13177 0,-0.29685 0.7303,-0.3998 1.6229,-0.22915 1.1944,0.22842 1.4977,0.10751 1.1487,-0.45697 -0.3486,-0.56426 -0.122,-0.65545 0.8575,-0.34463 0.7601,0.2411 1.7133,0.10571 2.2212,-0.31567 0.7131,-0.59181 0.8896,-0.54869 0.8896,0.21721 0,0.7399 0.5185,0.89948 2.2977,0.70693 1.2638,-0.13648 1.8152,-0.0992 1.2255,0.0836 -0.5898,0.18281 -1.0723,0.53154 -1.0723,0.77542 0,0.53067 4.6289,0.34934 6.6129,-0.2592 1.0034,-0.3077 1.3535,-0.20019 1.2254,0.37703 -0.269,1.2127 1.6756,1.38896 2.8099,0.2545 0.5465,-0.54638 0.9935,-0.71997 0.9935,-0.38565 0,0.33449 0.8296,0.79005 1.8435,1.01272 1.0926,0.24001 1.6777,0.67315 1.4365,1.06343 -0.2766,0.4477 0.2469,0.52774 1.6359,0.24979 2.6342,-0.5268 8.3646,0.19078 7.236,0.90628 -0.9586,0.60771 -0.5335,0.71428 3.1661,0.79367 1.5165,0.0326 3.4121,0.29323 4.2126,0.5794 1.0174,0.36356 1.3292,0.31603 1.036,-0.1582 -0.2704,-0.43745 0.1919,-0.66298 1.302,-0.63522 1.4981,0.0373 1.5623,0.10824 0.4957,0.54692 -1.126,0.46301 -1.1383,0.53947 -0.1517,0.94209 0.5905,0.2411 1.7335,0.2726 2.5399,0.0702 0.8064,-0.20236 2.4923,0.0605 3.7465,0.58472 1.2541,0.52408 2.6616,0.80637 3.1277,0.62754 0.4662,-0.17883 0.8476,-0.0634 0.8476,0.2563 0,0.63181 3.0651,0.44274 4.2009,-0.2592 0.3855,-0.2382 0.7009,-0.14118 0.7009,0.21576 0,0.35694 1.0691,0.64886 2.3759,0.64886 1.4077,0 2.6999,0.39054 3.1713,0.95849 0.5048,0.60836 1.3155,0.82792 2.2195,0.60101 0.9832,-0.24689 1.424,-0.0912 1.424,0.50196 0,1.02951 2.7548,1.6786 3.5881,0.84536 0.3748,-0.37486 0.829,-0.13611 1.2547,0.65922 0.5426,1.01391 0.4674,1.30746 -0.4028,1.57213 -0.5885,0.17883 -0.1738,0.24689 0.9213,0.15059 1.9722,-0.17304 2.7021,0.44954 1.2255,1.04537 -0.6816,0.27513 0.9819,0.65571 2.1225,0.48567 0.2403,-0.0362 0.2631,0.38942 0.05,0.94503 -0.3052,0.79554 -0.1097,0.93752 0.9201,0.66819 0.7194,-0.18788 1.2847,-0.16363 1.2563,0.0547 -0.1463,1.12389 0.1636,1.92846 0.7424,1.92846 0.3569,0 0.4523,-0.34464 0.2121,-0.7659 -0.24,-0.42124 0.122,-0.21431 0.8046,0.45953 0.6827,0.67399 1.1369,1.40872 1.0094,1.63266 -0.1275,0.22408 0.1147,0.52266 0.5379,0.66377 0.928,0.30916 1.0713,4.25827 0.1774,4.89367 -0.3573,0.25413 -0.099,0.45819 0.5922,0.46854 1.086,0.0145 1.0552,0.10462 -0.2701,0.77528 -0.8225,0.41627 -1.5118,1.02007 -1.5318,1.34175 -0.018,0.32146 -0.6969,1.24552 -1.5044,2.05302 -1.1907,1.19075 -1.3065,1.57053 -0.6127,2.00983 0.6849,0.43365 0.6416,0.54352 -0.2168,0.55105 -0.5898,0.007 -1.0723,0.42293 -1.0723,0.92844 0,0.50547 -0.3095,0.91907 -0.6877,0.91907 -0.4752,0 -0.452,0.28417 0.075,0.91906 0.527,0.63504 0.5502,0.91911 0.075,0.91911 -0.3782,0 -0.6877,0.27585 -0.6877,0.61269 0,0.33703 0.8272,0.61274 1.8381,0.61274 1.123,0 1.8382,0.31784 1.8382,0.81662 0,0.4924 1.2773,1.08019 3.2168,1.48039 1.7692,0.36512 4.3197,0.94155 5.6676,1.28104 1.348,0.33956 3.4473,0.76865 4.665,0.95382 1.2177,0.18535 2.9925,0.63257 3.9439,0.99433 0.9513,0.36164 3.5227,0.77589 5.714,0.92037 4.7527,0.3135 5.9976,1.21653 5.1563,3.74055 -0.4216,1.26479 -1.1403,1.86655 -2.6752,2.23993 -2.5238,0.61397 -4.2321,0.92982 -5.4686,1.01112 -0.7229,0.0478 -0.7486,0.1687 -0.1209,0.56676 0.439,0.27839 0.7147,0.89456 0.6127,1.36919 -0.1387,0.64525 0.4328,0.82994 2.2654,0.73195 3.3467,-0.17884 5.3592,0.30988 4.8263,1.17221 -0.2751,0.44484 -0.101,0.57183 0.4784,0.34934 0.5198,-0.19946 1.2224,0.15024 1.6375,0.81496 0.5697,0.91229 0.5603,1.16497 -0.044,1.1674 -0.4241,0 0.056,0.68101 1.0671,1.50972 1.0904,0.89383 1.479,1.51569 0.9552,1.52872 -0.6528,0.0145 -0.5876,0.2382 0.2498,0.85047 1.0626,0.77698 1.0243,0.8556 -0.6169,1.26753 -1.346,0.33776 -1.5462,0.56492 -0.8677,0.9843 0.7024,0.43409 0.7271,0.69995 0.1213,1.30587 -0.4185,0.41841 -0.7608,1.13885 -0.7608,1.60102 0,0.96262 -1.1337,2.22914 -2.4619,2.75043 -0.6493,0.25485 -0.6774,0.37026 -0.098,0.40491 1.1243,0.0673 -0.7046,1.88649 -1.8964,1.88649 -1.2415,0 -3.1055,2.24641 -2.7129,3.26944 0.3131,0.81611 -2.267,1.7232 -8.9394,3.14263 -0.9405,0.20019 -1.5532,0.61759 -1.3614,0.92776 0.1918,0.31024 -0.2183,0.8674 -0.9112,1.23825 -0.6929,0.37084 -1.0979,0.93611 -0.9001,1.2562 0.1991,0.32219 -0.5456,0.58609 -1.6678,0.5913 -1.5179,0.007 -1.7965,0.15531 -1.1084,0.59058 0.8022,0.50732 0.7799,0.72036 -0.1753,1.6756 -0.9552,0.9553 -1.1682,0.9776 -1.6756,0.17557 -0.3857,-0.61009 -0.5842,-0.66153 -0.5905,-0.15313 -0.014,1.22323 0.2556,1.69872 0.8536,1.4994 0.3062,-0.10209 0.7197,0.0532 0.9191,0.34463 0.1994,0.29142 1.9019,1.0066 3.7834,1.589 2.1064,0.65201 3.4211,1.40253 3.4211,1.95307 0,0.49179 -0.3676,0.8942 -0.817,0.8942 -0.5027,0 -0.8169,0.72083 -0.8169,1.87429 0,1.0309 0.2559,1.71614 0.5686,1.52294 0.3127,-0.19332 0.7448,0.20417 0.9603,0.8829 0.2154,0.67891 0.6231,1.23434 0.9059,1.23434 0.2827,0 0.378,0.52031 0.2118,1.15625 -0.1666,0.63601 0,1.34157 0.3636,1.568 0.985,0.60868 0.8083,1.56478 -0.2892,1.56478 -0.5254,0 -0.7848,0.27585 -0.5766,0.6127 0.2092,0.33848 -0.2317,0.61274 -0.985,0.61274 -0.7501,0 -1.1837,0.18028 -0.9635,0.4002 0.2201,0.2201 -0.3978,0.98915 -1.3733,1.70878 -1.3282,0.97992 -1.6358,1.55461 -1.2251,2.28851 0.3728,0.66613 0.2524,1.22594 -0.3765,1.7477 -0.5322,0.44165 -0.7715,1.25143 -0.5636,1.9067 0.2176,0.68539 0.064,1.13891 -0.3863,1.13891 -0.4112,0 -0.1314,0.53465 0.6222,1.18811 l 1.37,1.18819 -2.3331,0.43767 c -2.1613,0.40552 -3.8956,1.46794 -3.8956,2.38653 0,0.2125 0.3297,0.18246 0.7332,-0.067 0.4032,-0.24942 0.1086,0.42377 -0.6545,1.4956 l -1.3876,1.94876 1.4203,0.0485 c 0.7812,0.029 1.074,0.18825 0.6507,0.35875 -0.4234,0.17051 -0.6139,0.56249 -0.4234,0.87067 0.1904,0.30843 -0.1528,0.58215 -0.7621,0.60875 -0.7141,0.0326 -0.8205,0.16363 -0.2994,0.37193 0.951,0.38014 -1.8962,2.03058 -3.5029,2.03058 -0.6476,0 -1.0682,0.56096 -1.1486,1.5318 -0.083,1.00479 0.1872,1.5318 0.7855,1.5318 0.6072,0 0.9122,0.62113 0.9122,1.8579 0,1.35405 0.3739,2.0082 1.3786,2.41202 1.0854,0.43633 1.1464,0.56245 0.2871,0.59301 -0.6003,0.0217 -1.2502,0.45243 -1.4442,0.95791 -0.1941,0.5055 -0.7705,0.9191 -1.2812,0.9191 -1.3169,0 0.2324,1.82394 1.5942,1.87697 0.6564,0.0253 0.5126,0.2335 -0.4207,0.60753 -0.78,0.31277 -1.2462,0.8468 -1.0362,1.18662 0.21,0.33993 0.037,0.61791 -0.384,0.61791 -0.4214,0 -0.231,0.40484 0.4234,0.89959 0.9131,0.69072 0.9759,0.90868 0.2704,0.93858 -0.7057,0.0326 -0.643,0.24762 0.2704,0.93854 1.1773,0.89054 1.1773,0.90007 0,0.94271 -1.1525,0.0416 -1.1514,0.0594 0.036,0.56962 0.674,0.28961 0.8808,0.54598 0.4595,0.56966 -0.4212,0.0253 -0.7659,0.45667 -0.7659,0.96214 0,0.50551 -0.3095,0.9191 -0.6877,0.9191 -0.4807,0 -0.4964,0.2306 -0.052,0.7659 0.8235,0.99223 0.7978,1.88324 -0.07,2.41941 -0.4741,0.29287 -0.2396,1.04092 0.7433,2.37025 1.0761,1.45567 1.2446,2.0603 0.6726,2.41383 -1.0776,0.66603 -0.1785,1.83231 1.4213,1.84346 0.9867,0.007 1.1222,0.14915 0.5111,0.53617 -0.4572,0.28997 -0.595,0.66602 -0.3066,0.83617 0.8332,0.49113 8.2347,1.26279 11.0944,1.15668 1.4588,-0.0539 2.6041,0.1839 2.6041,0.54164 0,0.35115 0.7378,0.53943 1.6396,0.41866 1.0345,-0.13865 2.0774,0.21829 2.8261,0.96707 0.8886,0.88855 1.7115,1.10148 3.276,0.84764 1.2337,-0.20019 1.9433,-0.10281 1.733,0.23748 -0.2096,0.3392 1.4303,0.57646 3.9882,0.57646 3.289,0 4.4298,0.22228 4.6957,0.91556 0.193,0.50355 0.5982,0.76297 0.8999,0.57649 0.3016,-0.18643 0.5485,-0.0253 0.5485,0.35875 0,0.45635 0.6358,0.55793 1.8382,0.29396 1.0723,-0.23567 1.8381,-0.15205 1.8381,0.20019 0,0.33232 0.5159,0.46916 1.1463,0.30408 0.8384,-0.21901 1.2502,0.1144 1.5332,1.24202 0.2158,0.85908 0.9967,1.72757 1.7642,1.96136 1.9039,0.58019 3.5727,2.14743 3.1004,2.91166 -0.2393,0.38706 0,0.48477 0.6099,0.25015 0.5512,-0.21177 1.9061,-0.0666 3.0109,0.32183 1.9878,0.69918 1.9927,0.71062 0.4768,1.10166 -1.2642,0.32617 -0.9432,0.50656 1.8381,1.03306 l 3.37,0.63786 -2.9104,0.0728 c -1.6008,0.0398 -2.9104,0.33124 -2.9104,0.64695 0,0.31567 0.93,0.42333 2.0666,0.23892 1.1366,-0.18426 2.2399,-0.0554 2.4517,0.2878 0.231,0.37341 -0.091,0.49863 -0.803,0.31241 -0.6535,-0.17086 -1.8181,0.13069 -2.588,0.66986 -1.178,0.82502 -1.2269,0.98058 -0.3085,0.98058 0.6602,0 0.9213,0.27548 0.6606,0.69748 -0.3041,0.49226 0.181,0.59543 1.6487,0.35078 1.144,-0.19078 2.6314,-0.11041 3.3054,0.17847 0.9479,0.40632 0.6357,0.53501 -1.3786,0.56835 -1.4323,0.0254 -2.6041,0.31893 -2.6041,0.65578 0,0.33703 0.5852,0.61274 1.3004,0.61274 1.0866,0 1.1751,0.15132 0.5378,0.91906 -0.4196,0.50551 -0.5222,0.92331 -0.2285,0.92848 0.294,0.007 0.121,0.27658 -0.3845,0.60333 -0.6678,0.43158 -0.6998,0.59655 -0.1169,0.60335 0.4412,0.007 0.6317,0.28527 0.4234,0.62208 -0.2082,0.33703 -0.1278,0.61273 0.1788,0.61273 0.3132,0 0.2632,0.93989 -0.1136,2.1445 -0.3692,1.1795 -0.8958,2.14454 -1.1702,2.14454 -0.2744,0 -0.3287,0.27585 -0.1202,0.6127 0.2082,0.33703 0.055,0.61273 -0.3417,0.61273 -0.4379,0 -0.6055,0.60047 -0.4274,1.5318 0.1846,0.96584 0.011,1.53181 -0.4648,1.53181 -0.4167,0 -0.923,0.82718 -1.1251,1.83813 -0.2024,1.01101 -0.6775,1.83817 -1.0563,1.83817 -0.9526,0 -6.1439,2.25476 -8.9212,3.87479 -1.2578,0.73371 -1.2667,0.81299 -0.2324,2.09027 1.4921,1.84266 0.9402,4.23814 -1.0938,4.74871 -1.2593,0.31604 -1.4063,0.51833 -0.7043,0.96913 0.6041,0.388 0.2907,0.4557 -0.9821,0.21214 -1.5707,-0.30047 -1.9795,-0.11548 -2.5598,1.15806 -0.7319,1.60627 -0.7271,2.72194 0.014,3.91215 0.2635,0.42185 0,0.99415 -0.63,1.36003 -1.0075,0.58653 -0.9975,0.6362 0.1404,0.69347 1.2255,0.0619 1.2255,0.0619 0,0.56353 -0.674,0.27585 -2.0513,0.34644 -3.0608,0.15675 -1.7312,-0.3258 -1.776,-0.28562 -0.7885,0.70179 0.9876,0.98752 0.9729,1.13225 -0.2581,2.54789 -0.959,1.10289 -1.5108,1.33009 -2.081,0.8568 -0.5732,-0.47575 -1.0305,-0.25558 -1.75,0.84246 -1.1013,1.68066 -0.7018,3.45725 0.8044,3.57787 0.5536,0.0442 0.042,0.25993 -1.1378,0.47919 -1.4254,0.26499 -2.078,0.69441 -1.946,1.28075 0.148,0.65745 -0.1101,0.60329 -1.0115,-0.2125 -0.7881,-0.71326 -1.3505,-0.86748 -1.6133,-0.44233 -0.2219,0.35911 -1.1453,0.65686 -2.0521,0.66196 -0.9909,0.007 -1.3561,0.19549 -0.9153,0.47576 0.8992,0.57157 0.2175,1.6594 -1.0399,1.6594 -0.5591,0 -0.9001,0.54008 -0.8705,1.37864 0.029,0.75823 -0.1799,1.3786 -0.4595,1.3786 -0.2795,0 -0.5082,0.27585 -0.5082,0.61273 0,0.33703 0.4136,0.61274 0.9191,0.61274 0.5055,0 0.9191,0.30517 0.9191,0.67826 0,0.37301 0.3808,0.53215 0.8463,0.35368 0.4654,-0.17883 1.9129,0.0804 3.2167,0.5753 l 2.3705,0.89992 -2.1445,-0.324 c -1.8225,-0.27549 -1.9646,-0.21829 -0.9463,0.37921 1.1893,0.69787 1.1893,0.70671 0,1.16707 -0.659,0.25522 0.7064,0.30373 3.0341,0.10752 3.1272,-0.26318 4.1178,-0.17051 3.7934,0.35404 -0.2614,0.42261 -0.052,0.7103 0.5162,0.7103 0.5254,0 0.9553,0.27585 0.9553,0.61273 0,0.33703 -0.3095,0.6127 -0.6877,0.6127 -0.4485,0 -0.3968,0.35079 0.148,1.00744 0.7431,0.89546 0.6837,0.9591 -0.5339,0.57273 -1.0443,-0.3316 -1.2898,-0.22626 -1.0331,0.44292 0.4099,1.06817 -3.9055,2.33104 -8.8506,2.59006 -1.8139,0.0952 -3.4682,0.43187 -3.6763,0.74866 -0.2081,0.31676 -1.4089,0.7385 -2.6685,0.93728 -1.3244,0.20924 -2.9042,1.02405 -3.7465,1.93287 -0.8011,0.8644 -2.0616,1.57159 -2.801,1.57159 -0.7395,0 -1.1987,0.23566 -1.0206,0.52415 0.1781,0.28816 -0.4259,0.40465 -1.3425,0.25847 -1.1583,-0.18499 -1.4172,-0.0905 -0.8491,0.30952 0.6587,0.46377 0.6182,0.6519 -0.2086,0.96909 -0.5641,0.21648 -1.2766,0.23857 -1.5831,0.0489 -0.3066,-0.18933 -0.5575,0.10173 -0.5575,0.64691 0,0.5453 -0.2566,0.83273 -0.5704,0.63887 -0.3135,-0.19367 -0.7356,-0.0851 -0.9375,0.24146 -0.4011,0.64908 1.9511,1.32094 8.5542,2.44352 6.6319,1.1274 7.122,1.26595 6.7288,1.9021 -0.2023,0.32726 0.079,0.59475 0.6238,0.59475 0.5453,0 0.821,0.27585 0.6128,0.61273 -0.2082,0.33703 -0.8642,0.61274 -1.4575,0.61274 -0.5933,0 -1.6781,0.68929 -2.4107,1.53176 -1.3504,1.55312 -1.8592,1.74549 -4.1499,1.56898 -1.7349,-0.13358 -3.2494,1.63038 -1.858,2.16437 0.5415,0.2078 0.832,0.62461 0.6456,0.92627 -0.1865,0.30192 0.2284,0.54852 0.9226,0.54852 0.6938,0 1.2616,0.23965 1.2616,0.53259 0,0.29286 0.9607,0.68843 2.1348,0.87895 1.1742,0.19042 3.0353,1.19039 4.1359,2.22183 1.1006,1.0315 2.4998,1.87668 3.1094,1.87827 0.6097,0 0.9503,0.25884 0.757,0.57147 -0.1933,0.31278 0.2042,0.74487 0.883,0.96037 0.6789,0.2154 1.2343,0.67815 1.2343,1.02821 0,0.35007 0.6527,1.14981 1.4506,1.77743 1.5534,1.22196 1.593,3.60151 0.081,4.85659 -1.2107,1.00472 -8.3444,3.6759 -9.817,3.6759 -0.7225,0 -1.5091,0.19549 -1.7482,0.43459 -0.2389,0.23893 -1.4567,0.3657 -2.7061,0.28165 -1.2494,-0.084 -3.7584,0.1343 -5.5755,0.48516 -1.8171,0.35078 -7.6073,0.79005 -12.8672,0.97583 -8.4057,0.29684 -10.7906,0.61795 -14.7713,1.98858 -0.5055,0.17377 -1.2637,0.26101 -1.685,0.19295 -0.4212,-0.0677 -0.7659,0.10535 -0.7659,0.38503 0,0.27984 -0.9814,0.4759 -2.181,0.43615 -1.6093,-0.0532 -2.4756,0.30192 -3.3049,1.35648 -0.6182,0.78588 -1.7047,1.42885 -2.4144,1.42885 -0.7098,0 -1.2947,0.34463 -1.2998,0.7659 -0.01,0.5568 -0.155,0.53628 -0.5422,-0.0753 -0.3454,-0.545 -1.2976,-0.75193 -2.705,-0.58761 -1.1946,0.13937 -2.0701,0.0887 -1.9456,-0.11259 0.1242,-0.20127 -0.9912,-0.81748 -2.4792,-1.36893 -1.6356,-0.60625 -2.8491,-0.77057 -3.0684,-0.41555 -0.4891,0.79131 -4.2755,2.34028 -5.6267,2.30179 -0.5974,-0.0145 -2.0251,0.18065 -3.1727,0.43908 -1.5179,0.34174 -1.9673,0.27694 -1.6488,-0.2382 0.295,-0.47705 -0.1742,-0.70838 -1.4365,-0.70838 -1.2576,0 -1.8744,0.30228 -1.8744,0.91911 0,0.50547 -0.1574,0.91906 -0.35,0.91906 -0.1926,0 -0.7638,-0.41359 -1.2693,-0.91906 -1.0772,-1.0773 -4.9125,-1.23684 -5.252,-0.21866 -0.1748,0.52521 -0.5606,0.52553 -1.5403,0 -1.0474,-0.56057 -1.5038,-0.50232 -2.2997,0.29359 -0.6992,0.69922 -1.618,0.89148 -3.1061,0.65002 -1.1623,-0.1886 -2.1132,-0.10353 -2.1132,0.18861 0,0.69596 -2.5007,1.07194 -3.6763,0.55293 -0.5055,-0.22336 -1.6462,-0.74364 -2.5348,-1.15654 -2.0394,-0.94749 -9.8223,-0.50757 -12.7832,0.72268 -1.1795,0.49001 -3.3453,0.80492 -4.8128,0.69983 -1.4676,-0.10535 -3.122,0.0738 -3.6763,0.39752 -0.8878,0.5184 -0.8619,0.59547 0.2172,0.64608 1.1041,0.0514 1.0844,0.11403 -0.1988,0.62848 -0.8745,0.35042 -1.8333,0.35223 -2.4839,0.007 -0.6422,-0.34391 -1.4086,-0.34608 -1.9457,-0.007 -1.1778,0.74519 -1.9696,0.72854 -1.4999,-0.0326 0.2498,-0.404 -0.1528,-0.40918 -1.1893,-0.0145 -1.0167,0.38659 -1.5668,0.3859 -1.5668,0 0,-0.32871 -0.8435,-0.59753 -1.8743,-0.59753 -1.0309,0 -1.725,0.24146 -1.5426,0.53682 0.1825,0.29504 -0.6939,0.18426 -1.9476,-0.24689 -1.9127,-0.65752 -2.5601,-0.63837 -4.0247,0.1191 -0.96,0.49642 -2.8934,0.8576 -4.2966,0.80272 -4.1286,-0.16182 -4.8058,-0.0471 -4.3251,0.7306 0.3019,0.48878 0.1028,0.58627 -0.6266,0.30662 -0.5884,-0.22589 -1.254,-0.41471 -1.4792,-0.41985 -0.2251,-0.007 0.01,-0.30663 0.5097,-0.67052 0.7643,-0.54981 0.7302,-0.59981 -0.2035,-0.29684 -0.6173,0.20019 -1.7201,0.39165 -2.4508,0.42525 -1.2217,0.0561 -1.2053,0.10027 0.2034,0.55163 1.2117,0.38803 0.8701,0.50333 -1.6348,0.55162 -1.7417,0.0326 -3.648,0.24581 -4.2364,0.47152 -0.7293,0.27983 -0.9287,0.18245 -0.6267,-0.30662 0.2943,-0.47597 -0.084,-0.71681 -1.1249,-0.71681 -0.8624,0 -1.568,0.22046 -1.568,0.48968 0,0.26934 -0.965,0.377 -2.1445,0.23929 -1.2866,-0.15023 -2.1445,0.0145 -2.1445,0.41421 0,0.45324 -0.4804,0.48194 -1.5101,0.0905 -0.8306,-0.31567 -1.6552,-0.33956 -1.8324,-0.0529 -0.1774,0.28707 -1.359,0.69549 -2.6258,0.90792 -1.2669,0.2125 -2.9927,0.51188 -3.8352,0.66522 -0.8425,0.15349 -1.9454,0.35043 -2.4509,0.43811 -1.5868,0.27476 -6.7399,-0.78925 -6.7399,-1.39182 0,-0.31639 -0.4136,-0.57512 -0.9191,-0.57512 -0.5055,0 -0.9191,0.27549 -0.9191,0.6127 0,0.33703 -0.4298,0.61273 -0.9552,0.61273 -0.5254,0 -0.8043,-0.24435 -0.6199,-0.54268 0.53,-0.85745 -2.6351,-1.20958 -3.3314,-0.37066 -0.9364,1.12834 -6.767,0.70407 -7.465,-0.54312 -0.349,-0.62338 -1.3604,-0.9944 -2.7108,-0.9944 -1.185,0 -2.6877,-0.28527 -3.3395,-0.63431 -0.817,-0.43727 -1.1852,-0.43727 -1.1852,0 0,0.34897 -1.0339,0.63666 -2.2977,0.63963 -4.2478,0.0109 -8.8624,0.7596 -8.0084,1.30116 0.5067,0.32111 -0.1067,0.4936 -1.6419,0.46117 -2.1389,-0.0453 -2.2559,-0.11512 -0.9191,-0.55145 1.5167,-0.49483 -1.4835,-0.39832 -11.6417,0.37457 -6.615,0.50334 -6.9245,0.50091 -8.2249,-0.0648 -0.9474,-0.41236 -1.1023,-0.31386 -0.7895,0.50106 0.2972,0.77473 0.069,0.9806 -0.9659,0.87225 -0.7452,-0.0778 -1.5575,-0.41746 -1.8052,-0.75449 -0.2776,-0.37772 -0.4537,-0.31459 -0.4595,0.16471 -0.01,0.51289 -0.5079,0.65241 -1.4743,0.40987 -0.8058,-0.20237 -1.6449,-0.0768 -1.8649,0.27947 -0.2371,0.38358 -1.4491,0.505 -2.9772,0.29829 -1.4176,-0.19186 -4.5075,-0.0843 -6.8664,0.23893 -2.6362,0.36092 -5.8239,0.37355 -8.2717,0.0326 -2.1905,-0.30518 -5.943,-0.651 -8.3387,-0.7684 -2.3958,-0.11729 -4.8773,-0.46815 -5.5145,-0.77951 -0.6372,-0.31133 -1.7099,-0.51579 -2.3839,-0.4545 -4.1718,0.37942 -13.6756,1.00395 -14.7053,0.96638 -0.674,-0.0253 -2.4662,-0.0662 -3.98267,-0.0923 -1.51646,-0.0253 -3.59782,-0.3135 -4.62516,-0.63785 -1.02738,-0.32473 -2.95747,-0.70657 -4.28904,-0.84891 -4.07353,-0.43532 -7.26235,-1.02463 -8.54832,-1.57992 -1.06256,-0.4587 -4.72815,-1.05851 -7.65897,-1.25312 -0.5055,-0.0326 -1.33266,-0.22083 -1.83816,-0.4162 -1.14634,-0.44307 -1.89367,-0.49968 -13.0673,-0.9893 -4.99651,-0.21901 -9.59677,-0.67214 -10.22279,-1.00718 -0.62594,-0.33486 -1.78426,-0.60911 -2.57391,-0.60911 -0.78961,0 -2.03336,-0.41859 -2.76386,-0.93029 -0.73057,-0.51163 -1.55012,-0.89543 -1.8213,-0.85278 -0.78422,0.12308 -3.24569,-0.77173 -3.29728,-1.19879 -0.18933,-1.56844 -0.57921,-2.59607 -1.5415,-4.06474 -1.08776,-1.66017 -1.19112,-1.68406 -5.8856,-1.36231 -6.12695,0.41997 -12.12191,-0.0981 -11.76928,-1.01688 0.36993,-0.96403 -2.054,-2.34541 -3.37819,-1.92516 -0.76492,0.24291 -1.01623,0.78473 -0.82589,1.78068 0.17775,0.92982 -0.0677,1.56268 -0.70023,1.80545 -0.67337,0.25847 -0.97394,0.0253 -0.97394,-0.75743 0,-0.62215 -0.41874,-1.47873 -0.93062,-1.90355 -0.75859,-0.62957 -1.1354,-0.58685 -2.03955,0.23132 -0.60995,0.55199 -1.43193,1.00363 -1.82662,1.00363 -0.39474,0 -0.71772,0.4136 -0.71772,0.91907 0,1.26428 -1.04389,1.15082 -2.90899,-0.3164 -1.15908,-0.91171 -2.14747,-1.15219 -3.77296,-0.91816 -1.21131,0.17449 -1.8432,0.15096 -1.40408,-0.0521 0.60615,-0.28019 0.53237,-0.57085 -0.30662,-1.20686 -0.60756,-0.4608 -1.51834,-0.84225 -2.02381,-0.84782 -0.81694,-0.0109 -0.81694,0.0586 0,0.61186 0.68778,0.4654 0.50935,0.52705 -0.70888,0.24508 -1.80903,-0.41898 -3.93731,0.5012 -5.434,2.34951 -0.81499,1.00645 -1.21001,1.09688 -2.28278,0.52278 -1.60345,-0.85811 -4.03716,-0.91447 -3.52238,-0.0818 0.20815,0.33703 -0.19295,0.61274 -0.89123,0.61274 -1.22565,0 -1.8117,0.21431 -4.76808,1.74249 -1.6176,0.83616 -4.45056,0.94151 -4.45056,0.16543 0,-0.29865 -1.03397,-1.00573 -2.29771,-1.57144 -1.26369,-0.56567 -3.30028,-1.5621 -4.52568,-2.21429 -2.66684,-1.41944 -2.98012,-1.45133 -2.98012,-0.303 0,0.48556 -0.3182,1.07969 -0.70736,1.32013 -0.41979,0.2592 -0.54178,0.16942 -0.30011,-0.22191 0.27802,-0.44954 -0.93948,-0.62569 -3.82914,-0.5542 -2.33003,0.0576 -4.14365,0.25522 -4.03031,0.43908 0.33884,0.54924 -2.39845,0.31495 -3.33844,-0.28562 -0.63771,-0.40748 -0.77781,-0.31567 -0.52469,0.34391 0.26209,0.68314 -0.18752,0.91508 -1.86615,0.96272 -1.45064,0.0413 -2.56878,0.50384 -3.24986,1.34497 -1.3277,1.63968 -1.54527,1.61275 -2.01258,-0.24942 -0.21178,-0.84247 -0.76333,-1.53181 -1.22638,-1.53181 -0.46297,0 -0.97651,-0.35078 -1.14112,-0.77994 -0.34535,-0.89981 -4.36571,-0.88413 -5.51494,0.0217 -0.41269,0.32508 -1.16404,0.6216 -1.66951,0.65845 -0.50551,0.0369 -2.02199,0.29721 -3.36997,0.57842 -1.36636,0.28526 -3.36953,0.26897 -4.52695,-0.0362 -1.43597,-0.37841 -2.21013,-0.33015 -2.5107,0.15603 -0.23893,0.38673 -2.32051,0.85242 -4.6256,1.03483 -3.23288,0.25594 -4.33982,0.12924 -4.84197,-0.55242 -0.70866,-0.96251 -4.02086,-1.82304 -4.02086,-1.04461 0,0.2639 -2.13689,0.34391 -4.7486,0.17847 -2.61171,-0.16544 -5.43787,-0.3059 -6.28037,-0.31205 -0.8425,-0.007 -1.8588,-0.28165 -2.25857,-0.6123 -0.47886,-0.39615 -1.15796,-0.37034 -1.99133,0.0757 -0.8584,0.45942 -1.26461,0.47075 -1.26461,0.0362 0,-0.74549 -4.80059,-0.16725 -5.92122,0.71326 -1.33603,1.04972 -8.92755,1.26877 -11.54104,0.33305 -1.72355,-0.61708 -3.04072,-0.71442 -4.43988,-0.32798 -1.16874,0.32255 -3.22886,0.324 -4.99426,0.007 -1.74789,-0.31784 -3.41095,-0.31893 -3.97547,-0.007 -0.53371,0.29866 -1.9934,0.62359 -3.24359,0.72206 -1.25027,0.0985 -2.381,0.5025 -2.51277,0.89785 -0.13177,0.39532 -0.48607,0.56636 -0.7873,0.38026 -0.30119,-0.18608 -1.09855,-0.0438 -1.7717,0.31639 -1.12078,0.59978 -3.04489,0.0601 -4.31583,-1.2111 -0.50286,-0.50286 -7.35263,-0.52013 -7.35263,-0.0181 0,0.25413 -0.96363,0.35622 -2.14136,0.22626 -1.34435,-0.14806 -3.04557,0.22553 -4.571,1.00352 -2.64432,1.3491 -3.33938,1.52413 -2.83952,0.71533 0.17847,-0.28816 -0.35694,-0.39401 -1.1893,-0.23494 -0.83226,0.15928 -1.51747,0.60183 -1.52261,0.98379 -0.007,0.38195 -0.26897,0.28345 -0.58678,-0.21902 -0.39281,-0.62127 -1.77514,-0.95193 -4.32422,-1.03422 -2.06077,-0.0666 -4.0714,-0.38916 -4.46812,-0.71685 -0.39676,-0.32798 -1.82427,-0.76144 -3.17228,-0.96377 -1.63472,-0.24508 -2.04278,-0.19078 -1.22543,0.16363 1.03226,0.44758 0.83913,0.59518 -1.22544,0.93659 -5.45202,0.90168 -7.73702,0.99751 -8.90323,0.37341 -0.93539,-0.50066 -1.30131,-0.45624 -1.54845,0.18788 -0.17811,0.46388 -0.71323,0.84341 -1.18934,0.84341 -0.47622,0 -0.72384,-0.22988 -0.55022,-0.51065 0.17377,-0.28092 0.0217,-0.51058 -0.33341,-0.51058 -0.35694,0 -0.64886,0.27585 -0.64886,0.6127 0,0.95556 -2.2122,0.71945 -3.08235,-0.32907 -0.42985,-0.51796 -1.24846,-0.8627 -1.81906,-0.76597 -0.57063,0.0967 -1.49187,-0.20128 -2.04723,-0.66226 -0.87407,-0.72539 -1.16103,-0.65118 -2.13527,0.55196 -0.87834,1.08465 -1.49027,1.29841 -2.78579,0.97326 -0.91313,-0.22916 -1.51761,-0.64746 -1.34327,-0.92957 0.17413,-0.282 -0.20055,-0.98126 -0.83316,-1.55374 -0.75417,-0.68249 -1.28904,-0.81615 -1.55349,-0.38822 -0.22191,0.35912 -0.95483,0.6526 -1.62882,0.6526 -0.67398,0 -1.0668,-0.25667 -0.87294,-0.57038 0.19367,-0.31386 0.029,-0.76989 -0.36487,-1.01373 -0.44802,-0.27694 -0.55322,-0.17775 -0.2802,0.2639 0.25631,0.41461 0.0568,0.7074 -0.48186,0.7074 -0.50551,0 -1.08947,-0.27585 -1.29777,-0.61274 -0.5866,-0.94918 -3.19667,-0.72256 -3.59365,0.31169 -0.25232,0.65813 -1.14742,0.89471 -3.10455,0.82071 -1.51229,-0.0568 -2.6066,-0.33558 -2.43175,-0.61831 0.46051,-0.74519 -1.84157,-0.63301 -2.60136,0.12671 -0.90516,0.90516 -5.76476,1.07599 -6.60849,0.2324 -0.76337,-0.76347 -7.07813,-0.85922 -7.08425,-0.10751 -0.007,0.86675 -7.38702,0.47517 -9.25564,-0.49107 -1.02303,-0.52903 -2.4362,-0.78302 -3.18639,-0.57262 -1.03089,0.28924 -1.13591,0.23241 -0.44665,-0.24146 0.49573,-0.34065 0.68,-0.84087 0.40947,-1.11147 -0.27078,-0.27079 -0.86386,0.0145 -1.31851,0.63858 -0.62823,0.85915 -1.53524,1.10546 -3.77936,1.02636 -5.21353,-0.18353 -6.55662,-0.40928 -6.80098,-1.14235 -0.13141,-0.3947 -0.49139,-0.5618 -0.79956,-0.37131 -0.30807,0.19042 -0.56039,-0.0836 -0.56039,-0.6089 0,-0.52534 -0.48252,-0.93351 -1.07227,-0.9069 -0.58978,0.029 -0.74483,0.18173 -0.34463,0.34463 1.31354,0.5349 -1.49481,2.63184 -4.07784,3.04489 -1.34656,0.21539 -2.33539,0.57429 -2.19728,0.79775 0.13828,0.22336 -0.45943,0.46497 -1.32781,0.53686 -0.86835,0.072 -1.95137,0.43981 -2.40671,0.81774 -0.45529,0.37787 -0.82787,0.46026 -0.82787,0.18318 0,-0.2773 -0.33088,-0.17304 -0.73524,0.23132 -0.4044,0.4044 -1.26106,0.73524 -1.90369,0.73524 -0.75312,0 -1.05077,0.30662 -0.83736,0.86292 0.90523,2.35906 -5.48569,1.20404 -8.16539,-1.47562 -0.52516,-0.52516 -3.02001,-0.42518 -2.69062,0.10752 0.17159,0.27802 -0.11765,0.50496 -0.64318,0.50496 -0.52535,0 -0.95523,0.26717 -0.95523,0.59348 0,0.32653 -0.41356,0.43477 -0.91907,0.24074 -0.50551,-0.19404 -0.91906,-0.0471 -0.91906,0.32544 0,0.37309 -0.70563,0.67826 -1.56797,0.67826 -0.88931,0 -1.40405,-0.26535 -1.18927,-0.6127 0.20816,-0.33703 -0.0673,-0.61273 -0.61273,-0.61273 -0.54526,0 -0.82097,-0.27586 -0.61274,-0.6127 0.21648,-0.35007 -0.32363,-0.61274 -1.26073,-0.61274 -1.33183,0 -1.57995,0.22734 -1.32234,1.2124 0.27476,1.05124 -0.0807,1.26515 -2.67412,1.6092 -1.64515,0.21829 -2.85215,0.62171 -2.68223,0.89662 0.58805,0.95154 -4.07422,2.60346 -6.97463,2.47125 -1.5701,-0.0717 -4.42403,-0.17702 -6.34191,-0.23422 -1.91792,-0.0576 -3.37862,-0.2125 -3.24602,-0.34535 0.13286,-0.1325 -0.17485,-0.65719 -0.68329,-1.16571 -0.82422,-0.82414 -1.0622,-0.77676 -2.19337,0.43742 -0.91342,0.98043 -1.71888,1.27025 -2.87579,1.03458 -0.88384,-0.17992 -2.43418,-0.47673 -3.44512,-0.6594 -1.55009,-0.28019 -1.59809,-0.2563 -0.30662,0.15277 1.52108,0.48169 1.51826,0.48781 -0.40893,0.88229 -1.06742,0.21865 -2.51498,0.28671 -3.2168,0.15168 -0.70179,-0.13503 -1.27601,-0.0109 -1.27601,0.27078 0,0.28418 -1.30967,0.46276 -2.91044,0.3972 -1.60072,-0.0655 -3.54655,0.0988 -4.32404,0.36555 -0.89872,0.30843 -1.27611,0.2621 -1.0361,-0.12598 0.22444,-0.36302 -0.52194,-0.61089 -1.83929,-0.61089 -1.21928,0 -2.06233,0.25015 -1.8735,0.55558 0.18897,0.30553 -0.20526,0.41211 -0.87603,0.23675 -0.67065,-0.17557 -1.0862,-0.53443 -0.92344,-0.79779 0.16254,-0.26354 -0.10209,-0.63156 -0.58837,-0.81821 -0.52926,-0.20309 -0.77097,-0.0438 -0.60199,0.39661 0.5205,1.3563 -1.86362,2.27935 -3.901,1.5103 -1.50403,-0.56766 -2.11785,-0.50688 -3.40671,0.33775 -0.86462,0.56651 -2.06428,1.02583 -2.66586,1.02069 -0.87078,-0.007 -0.91943,-0.11983 -0.23857,-0.55083 0.66012,-0.41802 0.42257,-0.76518 -1.04186,-1.52243 -2.09143,-1.08154 -3.44179,-1.28223 -2.91728,-0.43365 0.18571,0.30119 -0.41804,0.75428 -1.34247,1.00707 l -1.68076,0.45968 1.5318,0.4637 c 1.27285,0.38528 1.32466,0.4773 0.30662,0.5442 -0.67399,0.0438 -1.72776,0.46138 -2.34176,0.92678 -1.07994,0.81864 -1.07994,0.85521 0,1.12414 0.614,0.15277 -0.96048,0.29468 -3.49884,0.31459 -5.10211,0.0405 -8.10957,0.59141 -7.61314,1.39453 0.1781,0.28815 -0.56608,0.75482 -1.65384,1.03675 -2.2619,0.58613 -5.56153,0.26101 -5.09023,-0.50167 0.38261,-0.61907 -3.60147,-1.79089 -6.14911,-1.80859 -1.41273,-0.0109 -1.62545,-0.1506 -0.9191,-0.6068 0.72199,-0.46659 0.57415,-0.59597 -0.68934,-0.60332 -0.8846,-0.007 -2.53894,-0.17051 -3.6763,-0.36733 -1.56612,-0.27079 -1.8449,-0.19911 -1.14883,0.29721 0.768,0.54724 0.70324,0.65646 -0.39397,0.66432 -0.72221,0.007 -1.47178,0.42293 -1.66578,0.9284 -0.19404,0.50551 -0.77492,0.9191 -1.291,0.9191 -0.51608,0 -0.93832,0.29432 -0.93832,0.65405 0,0.37514 0.52248,0.48813 1.22543,0.26498 2.07293,-0.65794 1.35377,0.62809 -0.7659,1.36952 -4.24262,1.48401 -7.33895,1.49013 -10.41573,0.0181 z m 29.26122,1.37433 c -0.21467,-0.34753 0.0326,-0.45012 0.57657,-0.24074 1.06145,0.40737 1.2557,0.84656 0.37436,0.84656 -0.31712,0 -0.74505,-0.27259 -0.95093,-0.60568 z"
       id="path5099"
       style="fill:#000000" />
  </g>
</svg>
